<?xml version="1.0" encoding="utf-8"?>
<!-- Generator: Adobe Illustrator 15.0.0, SVG Export Plug-In . SVG Version: 6.00 Build 0)  -->
<!DOCTYPE svg PUBLIC "-//W3C//DTD SVG 1.1//EN" "http://www.w3.org/Graphics/SVG/1.1/DTD/svg11.dtd">
<svg version="1.1" xmlns="http://www.w3.org/2000/svg" xmlns:xlink="http://www.w3.org/1999/xlink" x="0px" y="0px"
	 width="524.699px" height="524.701px" viewBox="0 0 524.699 524.701" enable-background="new 0 0 524.699 524.701"
	 xml:space="preserve">
<g id="Layer_2" display="none">
	
		<rect x="-688.652" y="-285.24" display="inline" fill="none" stroke="#5F2C86" stroke-miterlimit="10" width="601.669" height="759.503"/>
	
		<rect x="-650.394" y="-45.379" display="inline" fill="none" stroke="#5F2C86" stroke-miterlimit="10" width="519.282" height="519.283"/>
	<circle display="inline" fill="none" stroke="#5F2C86" stroke-miterlimit="10" cx="-420.657" cy="-101.795" r="54.144"/>
</g>
<g id="Layer_1">
	<g>
		<path fill="#D60B52" d="M202.435,3.039"/>
		<path fill="none" d="M101.128,341.987l0.008-0.309c-0.127-0.247-0.248-0.49-0.369-0.735
			C100.884,341.293,101.005,341.645,101.128,341.987z"/>
		<g>
			<path fill="#322B17" d="M143.376,329.009c0,0,0.996-2.166,2.104-1.669c7.635,3.409,40.064,17.266,97.314,16.625
				c86.16-0.967,130.332-40.777,141.768-49.933c1.635-1.31,2.463,1.072,2.463,1.072s-6.955,58.624-44.807,84.553
				c-35.219,24.128-73.27,26.534-104.502,21.405C167.823,389.576,143.376,329.009,143.376,329.009z"/>
			<path fill="#F7B20A" d="M385.507,293.639c1.01,0,1.518,1.466,1.518,1.466s-6.955,58.624-44.807,84.553
				c-25.668,17.583-52.842,23.633-77.783,23.633c-9.281,0-18.244-0.834-26.719-2.228c-69.893-11.487-94.34-72.054-94.34-72.054
				s0.807-1.744,1.768-1.744c0.109,0,0.225,0.022,0.336,0.075c7.463,3.332,38.611,16.643,93.477,16.643
				c1.264,0,2.543-0.004,3.838-0.018c86.16-0.967,130.332-40.777,141.768-49.933C384.913,293.75,385.228,293.639,385.507,293.639
				 M385.507,290.681c-0.68,0-1.719,0.181-2.797,1.042c-0.582,0.464-1.25,1.009-1.998,1.625
				c-14.137,11.564-57.168,46.749-137.953,47.654c-1.281,0.014-2.549,0.02-3.803,0.02c-48.361,0-78.568-10.264-92.271-16.387
				c-0.488-0.218-1.01-0.329-1.541-0.329c-2.658,0-4.084,2.656-4.455,3.472l-0.531,1.156l0.477,1.184
				c0.258,0.641,6.479,15.817,21.5,32.586c13.867,15.479,38.152,35.206,75.105,41.28c9.158,1.506,18.307,2.266,27.195,2.266
				c29.33,0,56.064-8.125,79.457-24.152c20.201-13.839,31.656-36.692,37.709-53.433c6.512-18.007,8.293-32.597,8.367-33.21
				l0.078-0.681l-0.225-0.645C389.263,292.54,387.802,290.681,385.507,290.681L385.507,290.681z"/>
		</g>
		<g>
			<path fill="#F39200" d="M389.866,409.967L389.866,409.967c2.043,0.826,3.523,2.775,3.629,5.122
				c0.041,0.804-0.094,1.581-0.355,2.29c-1.539,4.203-7.189,11.752-18.459,16.795c-10.805,4.831-22.527,4.593-24.408,3.938l0,0
				c-1.795-0.254-3.266-1.601-3.674-3.366c0.477,2.298,2.451,5.595,4.305,5.866l1.488,0.755c1.898,0.676,13.721,0.927,24.611-4.103
				c11.369-5.25,17.068-13.105,18.617-17.479c0.268-0.739,0.398-1.543,0.359-2.385C395.833,414.065,393.097,409.817,389.866,409.967
				z"/>
			<path fill="#F39200" d="M346.593,434.7c-0.057-0.24-0.092-0.494-0.102-0.751C346.497,434.178,346.536,434.435,346.593,434.7z"/>
		</g>
		<path fill="#3A3627" d="M365.79,202.442c0,0-60.695-20.939-88.793,4.98c-28.096,25.923-19.158,81.55-19.158,81.55
			c22.305,27.245,47.805,26.827,69.406,20.683c17.932-5.096,38.719-21.597,47.67-46.639
			C382.716,241.196,377.12,215.465,365.79,202.442z M337.878,279.953c-18.285,16.87-45.377,17.109-60.143,0.161
			c-14.773-16.942-12.047-45.089,6.24-61.957c18.283-16.863,45.748-16.629,60.518,0.318
			C359.259,235.418,356.161,263.089,337.878,279.953z"/>
		<path fill="#3A3627" d="M216.671,202.845c0,0-59.463-20.516-86.99,4.878c-27.527,25.396-18.807,78.118-18.807,78.118
			c23.004,26.883,46.869,28.064,68.029,22.043c17.574-4.996,37.939-21.16,46.705-45.693
			C233.251,240.81,227.772,215.605,216.671,202.845z M189.323,278.785c-17.914,16.523-44.453,16.758-58.918,0.159
			c-14.471-16.604-11.805-44.177,6.109-60.701c17.912-16.525,44.82-16.291,59.287,0.31
			C210.276,235.153,207.233,262.261,189.323,278.785z"/>
		<path fill="#644E7A" d="M282.546,215.227c-18.389,16.515-21.26,43.354-6.4,59.946c14.85,16.594,41.805,16.655,60.193,0.141
			s21.252-43.355,6.404-59.947C327.886,198.774,300.94,198.71,282.546,215.227z"/>
		<path fill="#B2A3BE" d="M295.438,212.278c-21.322,11.96-30.18,37.496-19.779,57.04c10.4,19.542,36.117,25.686,57.445,13.724
			s30.182-37.498,19.777-57.04C342.483,206.462,316.767,200.318,295.438,212.278z"/>
		<path fill="#7F629C" d="M292.157,238.196c6.846-15.526,24.68-29.042,42.332-29.056c-9.945-6.924-28.229-3.854-38.957,2.192
			c-21.688,12.221-30.699,38.309-20.121,58.272c2.602,4.905,10.789,16.424,25.613,18.294
			C289.782,278.97,284.942,254.551,292.157,238.196z"/>
		<path fill="#706F6F" d="M314.185,203.932c10.998-0.003,21.57,4.135,28.945,12.366c14.639,16.32,11.562,42.972-6.551,59.219
			c-9.119,8.169-20.436,12.287-31.303,12.287c-10.736,0-21.025-4.021-28.293-12.135c-14.639-16.32-11.939-43.431,6.176-59.679
			C292.146,207.935,303.374,203.934,314.185,203.932 M314.185,200.971L314.185,200.971c-12.062,0-23.785,4.553-33,12.818
			c-9.301,8.337-15.104,19.598-16.344,31.712c-1.244,12.194,2.283,23.613,9.936,32.145c7.582,8.46,18.418,13.119,30.5,13.119
			c12.076,0,23.893-4.633,33.271-13.047c9.322-8.354,15.195-19.528,16.533-31.455c1.352-12.081-2.107-23.426-9.75-31.943
			C337.616,205.711,326.556,200.971,314.185,200.971L314.185,200.971z"/>
		<path fill="#644E7A" d="M136.335,216.735c-17.82,16.259-20.598,42.679-6.203,59.012c14.395,16.334,40.51,16.392,58.324,0.138
			c17.824-16.259,20.602-42.679,6.205-59.013C180.269,200.539,154.157,200.479,136.335,216.735z"/>
		<path fill="#B2A3BE" d="M148.407,212.947c-20.914,11.697-29.607,36.663-19.404,55.769c10.203,19.104,35.428,25.111,56.338,13.421
			c20.922-11.697,29.607-36.663,19.404-55.769C194.548,207.263,169.327,201.253,148.407,212.947z"/>
		<path fill="#7F629C" d="M145.19,238.207c6.611-14.993,23.844-28.051,40.896-28.06c-9.609-6.689-27.271-3.723-37.643,2.115
			c-20.951,11.803-29.652,37.004-19.436,56.287c2.514,4.738,10.424,15.861,24.748,17.667
			C142.897,277.59,138.22,254.008,145.19,238.207z"/>
		<path fill="#706F6F" d="M166.565,205.078c10.787,0,21.182,4.029,28.342,12.013c14.152,15.78,10.998,41.737-6.523,57.449
			c-8.844,7.928-19.863,11.938-30.43,11.938c-10.367,0-20.299-3.861-27.307-11.68c-14.154-15.781-11.729-42.399,5.789-58.11
			C145.097,208.923,156.021,205.078,166.565,205.078 M166.565,202.119v2.959V202.119L166.565,202.119
			c-11.812,0-23.213,4.39-32.105,12.362c-18.592,16.672-21.348,45.199-6.02,62.295c7.322,8.165,17.807,12.662,29.514,12.662
			c11.764,0,23.273-4.509,32.402-12.693c9.037-8.107,14.758-18.961,16.105-30.561c1.365-11.786-1.951-22.821-9.354-31.069
			C189.708,206.853,178.571,202.119,166.565,202.119L166.565,202.119z"/>
		<path fill="#F1E5F2" d="M141.126,256.225c-3.303,0.349-6.262-2.04-6.613-5.341c-0.48-4.528-0.146-11.715,4.168-20.235
			c4.609-9.097,12.148-13.962,17.662-16.444c3.027-1.364,6.584-0.013,7.949,3.012c1.361,3.029,0.008,6.584-3.016,7.948
			c-3.746,1.688-8.85,4.95-11.875,10.916c-2.99,5.899-3.246,10.615-2.938,13.534C146.817,252.914,144.429,255.872,141.126,256.225z"
			/>
		<path fill="#F1E5F2" d="M286.788,256.119c-3.287,0.338-6.23-2.053-6.566-5.347c-0.463-4.514-0.102-11.676,4.227-20.149
			c4.629-9.048,12.164-13.87,17.668-16.322c3.02-1.348,6.562,0.011,7.91,3.035c1.344,3.021-0.016,6.558-3.037,7.906
			c-3.74,1.667-8.84,4.899-11.873,10.834c-3.004,5.869-3.279,10.567-2.98,13.478C292.474,252.842,290.079,255.784,286.788,256.119z"
			/>
		<path fill="#F39200" d="M164.776,94.559c0-1.062,0.27-2.058,0.744-2.928c1.922-4.155,6.803-10.439,20.51-15.332
			c9.295-3.32,24.209-2.468,29.566-0.198c0.305,0.11,0.6,0.243,0.865,0.424c0.004,0.004,0.008,0.004,0.012,0.007v0.002
			c0.625,0.433,1.105,1.051,1.379,1.775c0.408-0.634,0.721-5.18-3.311-7.43c-4.053-2.259-20.273-3.12-29.568,0.196
			c-13.705,4.897-18.729,11.393-20.51,15.336c-1.779,3.941-0.006,9.757,0.498,9.622l0,0
			C164.847,95.559,164.776,95.069,164.776,94.559z"/>
		<path fill="#D60B52" d="M126.577,97.958"/>
		<path fill="#7F7553" d="M261.257,216.549c-7.168-7.274-17.25-9.522-26.102-8.633c-4.535,0.455-8.51,1.897-12.305,4.456
			l-7.143-2.546c0,0,7.988-9.682,18.555-10.748c11.574-1.168,22.967,3.272,32.057,12.497
			C275.161,220.54,268.675,224.079,261.257,216.549z"/>
		<path fill="#93885F" d="M336.88,275.948c-8.355,7.642-19.416,12.473-30.871,12.9c-5.703,0.243-11.5-0.613-16.883-2.687
			c-5.383-2.064-10.312-5.367-14.242-9.682c-3.926-4.252-6.838-9.491-8.488-15.075c-1.674-5.588-2.141-11.521-1.492-17.327
			c0.68-5.803,2.434-11.481,5.156-16.663c2.752-5.164,6.43-9.829,10.779-13.735c4.391-3.865,9.453-6.968,14.906-9.039
			c5.455-2.062,11.271-3.112,17.061-3.093c5.789,0.024,11.564,1.168,16.852,3.425c5.307,2.214,10.109,5.605,13.873,9.904
			c3.812,4.248,6.59,9.396,8.084,14.876c1.52,5.48,1.83,11.258,1.043,16.868C351.169,257.878,345.315,268.39,336.88,275.948z
			 M336.38,275.385c8.357-7.396,14.189-17.729,15.721-28.842c0.729-5.539,0.391-11.235-1.174-16.592
			c-1.572-5.353-4.373-10.322-8.166-14.378c-3.811-4.04-8.557-7.127-13.719-9.063c-5.172-1.914-10.727-2.655-16.18-2.382
			c-10.959,0.529-21.447,5.175-29.453,12.417c-4.031,3.604-7.439,7.899-9.994,12.664c-2.59,4.738-4.381,9.936-5.139,15.303
			c-0.789,5.352-0.574,10.885,0.812,16.133c1.389,5.25,3.936,10.188,7.525,14.325c3.545,4.11,8.127,7.378,13.195,9.48
			c5.074,2.115,10.623,3.1,16.16,3.011C317.079,287.256,327.999,282.772,336.38,275.385z"/>
		<path opacity="0.7" fill="#FFE882" d="M114.694,226.523c-0.465,0-0.924-0.106-1.361-0.334c-1.453-0.75-2.02-2.534-1.27-3.987
			c1.84-3.543,3.889-6.731,6.096-9.479c6.594-8.193,11.305-11.067,15.201-13.121c1.447-0.76,3.234-0.205,4,1.241
			c0.758,1.448,0.203,3.238-1.246,4c-2.605,1.369-6.969,3.665-13.34,11.592c-1.963,2.438-3.797,5.294-5.453,8.491
			C116.798,225.942,115.767,226.523,114.694,226.523z"/>
		<path opacity="0.7" fill="#FFE882" d="M215.401,198.569c-0.635,0-1.27-0.198-1.809-0.618c-1.297-1.002-1.533-2.861-0.529-4.155
			c0.291-0.368,7.188-9.116,19.289-10.271c1.633-0.152,3.072,1.039,3.227,2.669c0.156,1.625-1.041,3.069-2.668,3.224
			c-9.578,0.914-15.115,7.935-15.17,8.003C217.163,198.176,216.286,198.569,215.401,198.569z"/>
		<path opacity="0.7" fill="#FFE882" d="M360.456,197.412c-0.854,0-1.705-0.368-2.289-1.081c-1.037-1.264-0.855-3.131,0.412-4.164
			c0.438-0.362,10.896-8.86,22.469-11.064c1.605-0.305,3.152,0.751,3.457,2.354c0.307,1.606-0.742,3.157-2.354,3.462
			c-10.105,1.925-19.723,9.745-19.816,9.822C361.784,197.194,361.118,197.412,360.456,197.412z"/>
		<path fill="#93885F" d="M188.386,274.407c-8.074,7.339-18.725,11.978-29.76,12.445c-5.512,0.241-11.098-0.582-16.289-2.578
			c-5.201-1.989-9.963-5.171-13.756-9.326c-3.791-4.103-6.609-9.154-8.209-14.543c-1.619-5.395-2.076-11.121-1.453-16.725
			c0.654-5.602,2.346-11.084,4.969-16.091c2.635-5.001,6.203-9.501,10.42-13.254c4.23-3.731,9.123-6.721,14.387-8.71
			c5.273-1.983,10.885-2.987,16.471-2.963c5.582,0.035,11.15,1.135,16.246,3.322c5.096,2.171,9.725,5.421,13.375,9.549
			c3.678,4.094,6.352,9.057,7.793,14.338c1.471,5.279,1.775,10.85,1.012,16.255C202.165,256.982,196.524,267.119,188.386,274.407z
			 M187.894,273.843c8.059-7.122,13.684-17.079,15.164-27.788c0.701-5.341,0.377-10.831-1.137-15.993
			c-1.514-5.158-4.221-9.949-7.879-13.854c-3.654-3.905-8.238-6.896-13.23-8.719c-4.99-1.83-10.338-2.539-15.594-2.266
			c-10.553,0.525-20.646,5.012-28.348,11.98c-7.711,6.968-13.094,16.563-14.576,26.911c-0.768,5.151-0.555,10.475,0.773,15.528
			c1.336,5.056,3.783,9.805,7.24,13.79c3.418,3.956,7.824,7.104,12.709,9.127c4.883,2.04,10.23,2.987,15.564,2.901
			c5.34-0.088,10.674-1.186,15.654-3.177C179.216,280.278,183.839,277.408,187.894,273.843z"/>
		<path opacity="0.7" fill="#FFE882" d="M260.88,226.523c-0.459,0-0.922-0.106-1.359-0.334c-1.453-0.75-2.018-2.534-1.268-3.987
			c1.84-3.543,3.889-6.731,6.094-9.479c6.598-8.193,11.305-11.067,15.203-13.121c1.449-0.76,3.234-0.205,3.996,1.241
			c0.76,1.448,0.203,3.238-1.242,4c-2.605,1.369-6.967,3.665-13.34,11.592c-1.963,2.438-3.801,5.294-5.453,8.491
			C262.987,225.942,261.948,226.523,260.88,226.523z"/>
		<path fill="#EC6608" d="M493.147,94.771c-10.914-18.08-23.072-27.686-28.955-28.247c-0.959-0.258-1.965-0.407-3.006-0.407
			c-6.416,0-11.613,5.206-11.613,11.618c0,3.656,1.689,6.911,4.324,9.041l-0.002,0.002c4.918,4.43,13.285,12.727,18.535,20.593
			c6.26,9.386,9.625,19.906,11.453,27.737l0.002,0.001c0.541,4.42,4.297,7.846,8.871,7.846c4.41,0,8.066-3.196,8.799-7.396
			C503.819,128.083,503.196,111.424,493.147,94.771z"/>
		<path fill="#EC6608" d="M261.675,7.168l0.004-0.008c-2.896-4.484-17.994-7.934-32.615-5.803
			c-11.954,1.744-20.314,6.575-24.327,10.494c-1.005,0.837-1.817,1.879-2.379,3.058c-0.003,0.007-0.01,0.015-0.013,0.022
			l0.002,0.002c-0.719,1.525-1.024,3.266-0.777,5.061c0.679,4.93,5.222,8.374,10.149,7.695c0.821-0.113,1.594-0.341,2.32-0.652
			v0.001c4.519-1.888,10.876-3.833,15.33-4.483c7.812-1.141,15.66-0.07,21.604,1.337c0.194,0.054,0.393,0.093,0.59,0.136
			c0.004,0,0.006,0,0.009,0.001l0,0c1.147,0.244,2.353,0.31,3.582,0.141c5.689-0.783,9.664-6.03,8.881-11.721
			C263.755,10.423,262.903,8.622,261.675,7.168z"/>
		<path fill="#D60B52" d="M30.759,335.001c-0.012-0.102-0.027-0.225-0.041-0.338c-0.006-0.059-0.014-0.116-0.021-0.175
			c-0.428-3.396-1.762-11.35-2.131-17.68c-0.559-9.599,1.461-14.398,1.789-20.593c0.039-0.365,0.061-0.735,0.061-1.111
			c0-5.744-4.658-10.398-10.4-10.398c-4.467,0-8.264,2.819-9.736,6.772l-0.006-0.001c-0.006,0.02-0.012,0.044-0.018,0.063
			c-0.215,0.586-0.377,1.194-0.482,1.824c-1.125,4.922-1.918,13.583-0.857,23.622c1.627,15.488,5.131,24.011,9.178,25.869h0.002
			c1.234,0.702,2.66,1.108,4.182,1.108c4.686,0,8.482-3.8,8.482-8.487c0-0.156-0.014-0.309-0.023-0.462L30.759,335.001z"/>
		<path fill="#D60B52" d="M202.435,3.039"/>
		<path fill="none" d="M101.128,341.987l0.008-0.309c-0.127-0.247-0.248-0.49-0.369-0.735
			C100.884,341.293,101.005,341.645,101.128,341.987z"/>
		<path fill="#951B81" d="M237.644,16.081c12.096-1.203,25.811,4.245,26.469-2.235c0.255-2.496-1.184-5.685-3.107-7.417
			c-1.415-1.272,0.599,0.742,0.599,0.742c-2.898-4.483-17.998-7.933-32.617-5.803c-3.389,0.492-6.478,1.273-9.28,2.135
			c-6.69,2.053-18.729,8.106-18.143,14.832c0.573,6.628,9.912,3.042,13.69,1.922C222.136,18.216,227.859,17.056,237.644,16.081z"/>
		<path fill="#951B81" d="M496.778,137.705c4.967-0.026,6.154-5.793,5.656-15.352c-0.414-7.963-3.361-17.762-9.287-27.582
			c-10.928-18.104-23.107-27.714-28.98-28.252v0.004c-0.949-0.256-1.947-0.406-2.98-0.406c-6.416,0-7.379,9.37-1.236,15.358
			c6.389,6.229,11.389,11.931,16.721,19.99C491.505,123.908,487.505,137.757,496.778,137.705z"/>
		<path fill="none" d="M216.462,76.534v-0.002c-0.004-0.003-0.012-0.003-0.012-0.007c-0.266-0.181-0.557-0.313-0.869-0.424
			c-5.357-2.27-20.268-3.122-29.559,0.198c-13.711,4.893-18.588,11.177-20.512,15.332c-0.479,0.87-0.744,1.865-0.744,2.928
			c0,3.387,2.744,6.133,6.135,6.133c1.342,0,2.588-0.437,3.602-1.175h0.004c4.859-3.38,12.525-8.111,20.65-11.092
			c5.754-2.115,15.48-4.39,19.777-5.175l0.004-0.014c1.771-0.278,3.131-1.802,3.131-3.649
			C218.069,78.322,217.427,77.205,216.462,76.534z"/>
		<path fill="none" d="M58.698,277.719c0.191,21.235,3.422,41.715,9.26,60.994C62.878,318.632,58.978,295.551,58.698,277.719z"/>
		<path fill="none" d="M387.433,409.547c-1.617,0.075-3.045,0.8-4.051,1.912c-4.057,3.893-8.102,6.703-15.572,10.629
			c-6.82,3.586-11.48,5.029-17.555,7.288v0.024c-2.217,0.331-3.871,2.266-3.764,4.548c0.096,2.153,1.723,3.871,3.781,4.164
			c1.881,0.654,13.604,0.893,24.408-3.938c11.27-5.043,16.92-12.592,18.459-16.795c0.262-0.709,0.396-1.486,0.355-2.29
			C393.351,411.883,390.632,409.402,387.433,409.547z"/>
		<path fill="#EC6608" d="M380.94,106.565c-0.625-0.663-4.207-4.626-10.418-10.119C373.956,99.62,377.421,102.986,380.94,106.565z"
			/>
		<path fill="#EC6608" d="M132.097,106.711c-1.447,1.654-2.883,3.309-4.309,4.963c1.289-1.38,2.35-2.486,3.1-3.25
			C131.386,107.931,131.792,107.35,132.097,106.711z"/>
		<path fill="none" d="M350.272,438.113c1.881,0.654,13.604,0.893,24.408-3.938c11.27-5.043,16.92-12.592,18.459-16.795
			c0.262-0.709,0.396-1.486,0.355-2.29c-0.145-3.206-2.863-5.688-6.062-5.542c-1.617,0.075-3.045,0.8-4.051,1.912
			c-4.057,3.893-8.102,6.703-15.572,10.629c-6.82,3.586-11.48,5.029-17.555,7.288v0.024c-2.217,0.331-3.871,2.266-3.764,4.548
			C346.587,436.102,348.214,437.82,350.272,438.113z"/>
		<path fill="none" d="M170.901,100.692c1.342,0,2.588-0.437,3.602-1.175h0.004c4.859-3.38,12.525-8.111,20.65-11.092
			c5.754-2.115,15.48-4.39,19.777-5.175l0.004-0.014c1.771-0.278,3.131-1.802,3.131-3.649c0-1.266-0.643-2.383-1.607-3.054v-0.002
			c-0.004-0.003-0.012-0.003-0.012-0.007c-0.266-0.181-0.557-0.313-0.869-0.424c-5.357-2.27-20.268-3.122-29.559,0.198
			c-13.711,4.893-18.588,11.177-20.512,15.332c-0.479,0.87-0.744,1.865-0.744,2.928C164.767,97.946,167.511,100.692,170.901,100.692
			z"/>
		<path fill="#D60B52" d="M245.253,471.314c-0.006-0.015-0.01-0.031-0.018-0.046C245.243,471.283,245.247,471.299,245.253,471.314z"
			/>
		<path fill="#D60B52" d="M338.056,462.6c0.09,0.091,0.184,0.175,0.264,0.274C338.239,462.775,338.146,462.691,338.056,462.6z"/>
		<path fill="#D60B52" d="M337.298,461.993c0.193,0.112,0.377,0.242,0.547,0.388C337.675,462.234,337.491,462.105,337.298,461.993z"
			/>
		<path fill="#D60B52" d="M338.667,463.41c0.008,0.016,0.02,0.028,0.027,0.043C338.687,463.438,338.675,463.425,338.667,463.41z"/>
		<path fill="#D60B52" d="M335.22,461.512c0.746-0.055,1.457,0.122,2.062,0.47C336.677,461.634,335.968,461.458,335.22,461.512z"/>
		<path fill="#D60B52" d="M244.896,470.397c-0.09-0.322-0.152-0.658-0.176-1.005C244.745,469.739,244.806,470.075,244.896,470.397z"
			/>
		<path fill="#D60B52" d="M418.235,402.958c-0.01,0-0.02,0.002-0.029,0.001c0.004,0,0.008,0.001,0.012,0.001
			C418.224,402.959,418.229,402.958,418.235,402.958z"/>
		<path fill="#EC6608" d="M419.462,402.737c-0.391,0.133-0.801,0.219-1.227,0.221c0.318,0.027,0.74-0.035,1.262-0.19
			C419.485,402.756,419.474,402.748,419.462,402.737z"/>
		<path fill="#EC6608" d="M246.396,472.796c-0.463-0.419-0.855-0.918-1.143-1.482C245.54,471.88,245.933,472.377,246.396,472.796z"
			/>
		<path fill="#EC6608" d="M245.235,471.268c-0.137-0.277-0.254-0.566-0.34-0.871C244.981,470.702,245.099,470.991,245.235,471.268z"
			/>
		<path fill="#EC6608" d="M339.089,464.826h0.002c-0.041-0.495-0.18-0.958-0.396-1.373
			C338.909,463.868,339.048,464.331,339.089,464.826z"/>
		<path fill="#EC6608" d="M337.282,461.982c0.006,0.003,0.01,0.008,0.016,0.011C337.292,461.99,337.288,461.985,337.282,461.982z"/>
		<path fill="#EC6608" d="M338.319,462.875c0.131,0.166,0.246,0.347,0.348,0.535C338.565,463.221,338.452,463.041,338.319,462.875z"
			/>
		<path fill="#EC6608" d="M337.845,462.38c0.076,0.066,0.141,0.146,0.211,0.22C337.985,462.527,337.921,462.447,337.845,462.38z"/>
		<path fill="#D60B52" d="M58.683,275.716c0,0.659,0.006,1.328,0.016,2.003C58.692,277.051,58.683,276.385,58.683,275.716z"/>
		<path fill="#EC6608" d="M521.603,259.422c-0.016-0.21-0.047-0.415-0.078-0.623c-0.008-0.053-0.014-0.117-0.023-0.172h-0.008
			c-0.717-3.877-4.107-6.813-8.193-6.813c-3.955,0-7.268,2.76-8.119,6.458c-1.947,7.271-7.918,40.869-29.176,83.517
			c-18.51,37.128-52.639,61.69-57.799,61.17c-2.137-0.006-3.865-1.738-3.865-3.871c0-1.36,0.701-2.551,1.766-3.241
			c10.137-9.181,43.939-45.518,56.406-120.978c1.121-6.787,2.076-13.886,2.818-21.315c9.92-99.196-37.07-174.379-80.15-212.758
			c-27.062-24.112-67.074-37.061-91.002-37.168c-2.5-0.019-4.826,0.1-6.953,0.363c-8.176,1.012-10.924,6.549-11.057,11.153
			c-0.109,3.661,2.41,9.162,7.99,10.774c25.637,7.404,61.518,21.665,90.586,51.818c8.842,9.172,17.037,20.941,24.203,33.297
			c17.939,30.915,29.439,65.485,28.469,72.171c0,2.826-2.283,5.108-5.109,5.108c-2.252,0-4.137-1.457-4.816-3.475l-0.023,0.002
			c-4.094-12.587-12.604-28.89-20.531-43.539c-4.412-8.151-13.16-21.083-25.996-34.736c-3.52-3.579-6.984-6.945-10.418-10.119
			c-23.162-21.416-44.844-33.924-71.662-41.81c-40.16-11.815-86.588-11.013-101.602-10.41l-1.252-0.034
			c-18.273,0-63.174-28.193-114.385-1.115c-44.43,23.495-40.193,76.064-49.031,90.394c-8.334,13.517-19.424,39.788-22.455,65.271
			c-2.34,19.703-1.221,46.604,2.488,57.239c0.141,0.479,0.324,0.937,0.535,1.38c0.021,0.049,0.043,0.102,0.061,0.146h0.01
			c1.566,3.171,4.83,5.358,8.609,5.358c5.15,0,9.342-4.047,9.592-9.132l0.01-0.002c0-0.02,0-0.04-0.006-0.062
			c0.006-0.142-0.018-1.303-0.078-1.731c-0.777-19.849,2.15-51.946,20.855-89.188c14.973-29.826,55.736-62.132,73.098-64.662
			c0,0,5.775-1.284,7.338,1.325c2.283,3.802-0.523,7.264-0.539,7.286c-0.004,0.005-0.008,0.009-0.012,0.014
			c-0.305,0.639-0.711,1.22-1.209,1.713c-0.75,0.764-1.811,1.87-3.1,3.25c-11.295,12.076-41.322,46.274-56.564,76.939
			c-21.953,44.155-29.715,90.337-22.969,153.175c5.748,53.634,27.711,105.869,61.695,128.76
			c12.908,8.688,31.406,13.396,38.488,10.108c2.941-1.226,5.014-4.127,5.014-7.514c0-2.747-1.361-5.162-3.441-6.639l0.004-0.003
			c-0.008-0.009-0.018-0.009-0.025-0.013c-0.605-0.429-1.273-0.773-1.99-1.021c-7.096-3.444-18.83-7.712-31.354-21.871
			c-12.842-14.519-22.846-37.432-29.102-59.769c-5.328-19.039-7.938-37.66-7.236-50.307c0.281-4.996,1.074-9.057,2.42-11.843
			c0.127-0.327,0.287-0.636,0.482-0.916c0.008-0.007,0.008-0.016,0.018-0.022h0.004c0.762-1.07,2.004-1.774,3.422-1.774
			c2.01,0,3.684,1.41,4.107,3.291l0.109,0.022c0,7.264,3.145,32.668,14.326,56.581c0.162,0.347,0.318,0.695,0.484,1.042
			c17.23,36.025,61.088,62.652,72.572,73.617c11.486,10.959,33.416,50.118,99.725,53.249c66.307,3.137,85.621-39.152,95.543-48.551
			c9.92-9.399,57.201-3.882,103.15-59.747C511.544,356.069,525.788,288.543,521.603,259.422z M350.255,429.401v-0.024
			c6.074-2.259,10.734-3.702,17.555-7.288c7.471-3.926,11.516-6.736,15.572-10.629c1.006-1.112,2.434-1.837,4.051-1.912
			c3.199-0.146,5.918,2.336,6.062,5.542c0.041,0.804-0.094,1.581-0.355,2.29c-1.539,4.203-7.189,11.752-18.459,16.795
			c-10.805,4.831-22.527,4.593-24.408,3.938c-2.059-0.293-3.686-2.011-3.781-4.164C346.384,431.667,348.038,429.732,350.255,429.401
			z M165.511,91.631c1.924-4.155,6.801-10.439,20.512-15.332c9.291-3.32,24.201-2.468,29.559-0.198
			c0.312,0.11,0.604,0.243,0.869,0.424c0,0.004,0.008,0.004,0.012,0.007v0.002c0.965,0.671,1.607,1.788,1.607,3.054
			c0,1.848-1.359,3.371-3.131,3.649l-0.004,0.014c-4.297,0.785-14.023,3.06-19.777,5.175c-8.125,2.98-15.791,7.712-20.65,11.092
			h-0.004c-1.014,0.738-2.26,1.175-3.602,1.175c-3.391,0-6.135-2.746-6.135-6.133C164.767,93.497,165.032,92.501,165.511,91.631z
			 M93.411,79.587c-19.576,15.85-32.664,33.171-35.393,36.512c-0.031,0.048-0.072,0.09-0.107,0.132
			c-0.004,0.005-0.01,0.011-0.01,0.014C57.526,116.704,56.97,117,56.327,117c-1.123,0-2.033-0.91-2.033-2.033
			c0-0.166,0.023-0.322,0.062-0.479c1.133-8.297,11.389-32.53,30.941-48.087c14.652-11.658,37.617-18.735,51.014-16.31
			c0.203,0.02,0.395,0.056,0.586,0.108c0.047,0.008,0.098,0.015,0.148,0.025v0.02c1.525,0.486,2.641,1.904,2.641,3.594
			c0,1.69-1.115,3.104-2.641,3.592v0.02C125.888,60.42,106.661,68.864,93.411,79.587z M338.196,467.508v0.007
			c-3.904,4.44-25.068,12.156-46.057,12.653c-24.643,0.583-42.156-3.747-45.65-7.202l0.018-0.055
			c-1.006-0.854-1.686-2.098-1.787-3.52c-0.209-2.815,1.906-5.266,4.725-5.469c0.141,0,0.414,0.004,0.781,0.018
			c0.086,0.007,0.182,0,0.268,0.009c5.146,0.212,26.16,1.373,40.008,0.98c16.006-0.451,33.719-1.91,43.906-3.356l0.051,0.082
			c0.24-0.073,0.5-0.122,0.762-0.144c1.99-0.146,3.729,1.354,3.877,3.347C339.167,465.866,338.817,466.811,338.196,467.508z"/>
		<path fill="#5F2C86" d="M240.104,11.406c15.733-0.48,20.66,2.564,21.968-1.399c0.326-0.996,0.324-1.61-0.393-2.846
			c-2.158-3.709-14.672-6.958-25.681-6.402c-2.812,0.142-7.25,0.441-13.302,1.884c-2.78,0.665-6.392,2.875-5.424,6.341
			c0.572,2.036,2.556,3.542,5.483,3.413C224.284,12.328,230.282,11.702,240.104,11.406z"/>
		<path fill="#5F2C86" d="M497.146,117.63c4.076-0.37,3.16-7.654,2.762-8.742c-2.111-5.829-4.818-12.601-8.363-17.402
			c-10.553-14.303-15.467-18.299-24.15-24.523c0,0-3.076-1.254-4.945,0.453c-3.271,2.972,0.514,7.374,3.564,10.377
			c5.926,5.842,9.832,10.92,14.984,17.192C491.718,108.038,491.171,118.174,497.146,117.63z"/>
		<path fill="#951B81" d="M22.276,315.431c-0.559-9.608,0.906-15.83,1.762-20.719c0.848-4.893,0-10.006-4.023-10.006
			c-4.469,0-8.27,2.821-9.74,6.773l-0.002-0.002c-0.006,0.024-0.016,0.053-0.02,0.077c-0.213,0.572-0.371,1.168-0.477,1.779
			c-1.127,4.919-1.926,13.597-0.861,23.653c1.627,15.488,5.131,24.011,9.178,25.869l0,0c1.236,0.702,2.66,1.108,4.184,1.108
			c4.686,0,4.666-5.145,3.49-9.999C24.595,329.109,22.646,321.754,22.276,315.431z"/>
		<path fill="#F39200" d="M262.351,82.707c-84.715,0-157.111,66.59-175.645,142.635c-0.232,0.94-11.984,66.137,0.979,77.011
			c11.934,10.004,16.111,32.623,19.771,41.613c23.496,57.689,84.152,98.036,154.895,98.036c99.217,0,179.645-80.433,179.645-179.647
			C441.995,163.135,361.567,82.707,262.351,82.707z"/>
		<path fill="#FFCE03" d="M422.087,262.354c0,88.222-71.518,159.734-159.736,159.734c-88.221,0-159.738-71.513-159.738-159.734
			s71.518-159.741,159.738-159.741C350.569,102.613,422.087,174.132,422.087,262.354z"/>
		<g>
			<path fill="#322B17" d="M143.376,329.009c0,0,0.996-2.166,2.104-1.669c7.635,3.409,40.064,17.266,97.314,16.625
				c86.16-0.967,130.332-40.777,141.768-49.933c1.635-1.31,2.463,1.072,2.463,1.072s-6.955,58.624-44.807,84.553
				c-35.219,24.128-73.27,26.534-104.502,21.405C167.823,389.576,143.376,329.009,143.376,329.009z"/>
			<path fill="#F7B20A" d="M385.507,293.639c1.01,0,1.518,1.466,1.518,1.466s-6.955,58.624-44.807,84.553
				c-25.668,17.583-52.842,23.633-77.783,23.633c-9.281,0-18.244-0.834-26.719-2.228c-69.893-11.487-94.34-72.054-94.34-72.054
				s0.807-1.744,1.768-1.744c0.109,0,0.225,0.022,0.336,0.075c7.463,3.332,38.611,16.643,93.477,16.643
				c1.264,0,2.543-0.004,3.838-0.018c86.16-0.967,130.332-40.777,141.768-49.933C384.913,293.75,385.228,293.639,385.507,293.639
				 M385.507,290.681c-0.68,0-1.719,0.181-2.797,1.042c-0.582,0.464-1.25,1.009-1.998,1.625
				c-14.137,11.564-57.168,46.749-137.953,47.654c-1.281,0.014-2.549,0.02-3.803,0.02c-48.361,0-78.568-10.264-92.271-16.387
				c-0.488-0.218-1.01-0.329-1.541-0.329c-2.658,0-4.084,2.656-4.455,3.472l-0.531,1.156l0.477,1.184
				c0.258,0.641,6.479,15.817,21.5,32.586c13.867,15.479,38.152,35.206,75.105,41.28c9.158,1.506,18.307,2.266,27.195,2.266
				c29.33,0,56.064-8.125,79.457-24.152c20.201-13.839,31.656-36.692,37.709-53.433c6.512-18.007,8.293-32.597,8.367-33.21
				l0.078-0.681l-0.225-0.645C389.263,292.54,387.802,290.681,385.507,290.681L385.507,290.681z"/>
		</g>
		<g>
			<path fill="#F39200" d="M389.866,409.967L389.866,409.967c2.043,0.826,3.523,2.775,3.629,5.122
				c0.041,0.804-0.094,1.581-0.355,2.29c-1.539,4.203-7.189,11.752-18.459,16.795c-10.805,4.831-22.527,4.593-24.408,3.938l0,0
				c-1.795-0.254-3.266-1.601-3.674-3.366c0.477,2.298,2.451,5.595,4.305,5.866l1.488,0.755c1.898,0.676,13.721,0.927,24.611-4.103
				c11.369-5.25,17.068-13.105,18.617-17.479c0.268-0.739,0.398-1.543,0.359-2.385C395.833,414.065,393.097,409.817,389.866,409.967
				z"/>
			<path fill="#F39200" d="M346.593,434.7c-0.057-0.24-0.092-0.494-0.102-0.751C346.497,434.178,346.536,434.435,346.593,434.7z"/>
		</g>
		<path fill="#F3A60C" d="M423.94,222.041l-0.174-4.895L396.55,194.89l-19.578-1.236l-11.049,4.443
			c-24.646-17.8-65.094-15.335-89.926,7.567c-2.758,2.548-5.336,5.197-7.725,7.918c-8.857-8.328-19.693-12.307-30.707-11.196
			c-4.623,0.464-8.99,1.795-13.008,3.857c-0.213-0.263-0.424-0.528-0.637-0.784c-0.781-0.923-1.633-1.804-2.521-2.665
			c-19.588-20.53-66.73-23.908-94.055,1.301c-28.037,25.865-32.174,63.792-13.332,85.97c1.643,1.937,3.316,3.72,5,5.392
			c21.445,22.027,46.162,22.75,66.447,16.979c17.896-5.087,38.637-21.551,47.566-46.535c6.141-17.182,3.85-36.692-2.861-50.617
			c-0.238-0.495,5.129-2.486,8.293-2.805c8.605-0.865,16.689,1.688,23.748,8.558c-17.191,23.638-19.889,51.1-1.332,72.396
			c1.5,1.718,3.02,3.312,4.561,4.807c21.977,22.155,48.236,21.581,68.682,15.771c17.898-5.087,38.639-21.556,47.564-46.54
			c6.111-17.082,5.885-36.564,0.045-50.442c8.146-4.363,12.318-8.074,18.834-1.224c1.008,1.062,1.801,2.219,2.432,3.411
			c0.885,2.521,1.227,5.043,1.275,7.07c0.08,3.358,0.232,6.771,6.355,9.235c1.68,0.676,4.994,1.75,6.494,2.142
			C420.874,238.643,423.94,222.041,423.94,222.041z M195.028,281.756c-17.389,16.038-42.748,16.992-57.85,2.411
			c-0.375-0.397-0.75-0.79-1.111-1.205c-14.736-16.908-12.021-44.992,6.221-61.82c17.389-16.038,43.086-16.563,58.217-1.943
			c0.383,0.397,0.76,0.795,1.119,1.213c1.561,1.79,2.91,3.704,4.07,5.707c-3.498,7.078-5.605,15.334-5.857,24.269l8.877,0.254
			c0.107-3.996,0.701-7.833,1.652-11.461C212.835,253.851,207.444,270.302,195.028,281.756z M343.681,283.329
			c-17.385,16.038-42.744,16.994-57.84,2.411c-0.377-0.393-0.756-0.79-1.119-1.208c-8.523-9.778-11.195-23.286-8.414-36.202
			c0.127,0.856,0.238,1.718,0.328,2.588l8.836-0.893c-0.561-5.528-1.824-10.857-3.693-15.843c2.41-4.16,5.463-8.05,9.172-11.468
			c17.381-16.038,43.086-16.565,58.215-1.943c0.375,0.396,0.752,0.797,1.121,1.215C365.021,238.889,361.925,266.499,343.681,283.329
			z"/>
		<path fill="#3A3627" d="M365.79,202.442c0,0-60.695-20.939-88.793,4.98c-28.096,25.923-19.158,81.55-19.158,81.55
			c22.305,27.245,47.805,26.827,69.406,20.683c17.932-5.096,38.719-21.597,47.67-46.639
			C382.716,241.196,377.12,215.465,365.79,202.442z M337.878,279.953c-18.285,16.87-45.377,17.109-60.143,0.161
			c-14.773-16.942-12.047-45.089,6.24-61.957c18.283-16.863,45.748-16.629,60.518,0.318
			C359.259,235.418,356.161,263.089,337.878,279.953z"/>
		<path fill="#3A3627" d="M216.671,202.845c0,0-59.463-20.516-86.99,4.878c-27.527,25.396-18.807,78.118-18.807,78.118
			c23.004,26.883,46.869,28.064,68.029,22.043c17.574-4.996,37.939-21.16,46.705-45.693
			C233.251,240.81,227.772,215.605,216.671,202.845z M189.323,278.785c-17.914,16.523-44.453,16.758-58.918,0.159
			c-14.471-16.604-11.805-44.177,6.109-60.701c17.912-16.525,44.82-16.291,59.287,0.31
			C210.276,235.153,207.233,262.261,189.323,278.785z"/>
		<path fill="#644E7A" d="M282.546,215.227c-18.389,16.515-21.26,43.354-6.4,59.946c14.85,16.594,41.805,16.655,60.193,0.141
			s21.252-43.355,6.404-59.947C327.886,198.774,300.94,198.71,282.546,215.227z"/>
		<path fill="#B2A3BE" d="M295.438,212.278c-21.322,11.96-30.18,37.496-19.779,57.04c10.4,19.542,36.117,25.686,57.445,13.724
			s30.182-37.498,19.777-57.04C342.483,206.462,316.767,200.318,295.438,212.278z"/>
		<path fill="#7F629C" d="M292.157,238.196c6.846-15.526,24.68-29.042,42.332-29.056c-9.945-6.924-28.229-3.854-38.957,2.192
			c-21.688,12.221-30.699,38.309-20.121,58.272c2.602,4.905,10.789,16.424,25.613,18.294
			C289.782,278.97,284.942,254.551,292.157,238.196z"/>
		<path fill="#644E7A" d="M136.335,216.735c-17.82,16.259-20.598,42.679-6.203,59.012c14.395,16.334,40.51,16.392,58.324,0.138
			c17.824-16.259,20.602-42.679,6.205-59.013C180.269,200.539,154.157,200.479,136.335,216.735z"/>
		<path fill="#B2A3BE" d="M148.407,212.947c-20.914,11.697-29.607,36.663-19.404,55.769c10.203,19.104,35.428,25.111,56.338,13.421
			c20.922-11.697,29.607-36.663,19.404-55.769C194.548,207.263,169.327,201.253,148.407,212.947z"/>
		<path fill="#7F629C" d="M145.19,238.207c6.611-14.993,23.844-28.051,40.896-28.06c-9.609-6.689-27.271-3.723-37.643,2.115
			c-20.951,11.803-29.652,37.004-19.436,56.287c2.514,4.738,10.424,15.861,24.748,17.667
			C142.897,277.59,138.22,254.008,145.19,238.207z"/>
		<path fill="#F1E5F2" d="M141.126,256.225c-3.303,0.349-6.262-2.04-6.613-5.341c-0.48-4.528-0.146-11.715,4.168-20.235
			c4.609-9.097,12.148-13.962,17.662-16.444c3.027-1.364,6.584-0.013,7.949,3.012c1.361,3.029,0.008,6.584-3.016,7.948
			c-3.746,1.688-8.85,4.95-11.875,10.916c-2.99,5.899-3.246,10.615-2.938,13.534C146.817,252.914,144.429,255.872,141.126,256.225z"
			/>
		<path fill="#F1E5F2" d="M286.788,256.119c-3.287,0.338-6.23-2.053-6.566-5.347c-0.463-4.514-0.102-11.676,4.227-20.149
			c4.629-9.048,12.164-13.87,17.668-16.322c3.02-1.348,6.562,0.011,7.91,3.035c1.344,3.021-0.016,6.558-3.037,7.906
			c-3.74,1.667-8.84,4.899-11.873,10.834c-3.004,5.869-3.279,10.567-2.98,13.478C292.474,252.842,290.079,255.784,286.788,256.119z"
			/>
		<path fill="#F39200" d="M164.776,94.559c0-1.062,0.27-2.058,0.744-2.928c1.922-4.155,6.803-10.439,20.51-15.332
			c9.295-3.32,24.209-2.468,29.566-0.198c0.305,0.11,0.6,0.243,0.865,0.424c0.004,0.004,0.008,0.004,0.012,0.007v0.002
			c0.625,0.433,1.105,1.051,1.379,1.775c0.408-0.634,0.721-5.18-3.311-7.43c-4.053-2.259-20.273-3.12-29.568,0.196
			c-13.705,4.897-18.729,11.393-20.51,15.336c-1.779,3.941-0.006,9.757,0.498,9.622l0,0
			C164.847,95.559,164.776,95.069,164.776,94.559z"/>
		<path fill="#D60B52" d="M126.577,97.958"/>
		<path fill="#7F7553" d="M424.073,225.805c-1.484,5.502-2.529,7.069-4.006,7.178c-0.26,0.02-0.859,0.175-1.914-0.042
			c-1.516-0.312-4.354-1.313-6.061-1.921c-3.639-1.298-5.141-3.162-5.303-6.827c-0.164-3.653-0.986-8.931-4.758-12.889
			c-8.561-8.991-17.613-5.434-29.168,2.508l-5.35-1.175c0,0-13.279-4.01-18.832-7.608l28.289-11.375l19.578,1.236l27.217,22.256
			L424.073,225.805z"/>
		<path fill="#7F7553" d="M261.257,216.549c-7.168-7.274-17.25-9.522-26.102-8.633c-4.535,0.455-8.51,1.897-12.305,4.456
			l-7.143-2.546c0,0,7.988-9.682,18.555-10.748c11.574-1.168,22.967,3.272,32.057,12.497
			C275.161,220.54,268.675,224.079,261.257,216.549z"/>
		<path fill="#494632" d="M418.12,189.535c-16.922-17.931-40.533-17.597-67.133,2.802c-20.883-14.616-50.533-13.901-73.941,2.166
			c-9.174-11.324-24.422-17.116-41.027-15.44c-12.754,1.285-23.756,7.675-31.172,16.922c-22.479-17.787-57.105-15.787-81.469,6.058
			c-26.922,24.147-31.125,63.382-9.373,87.637c21.752,24.256,61.207,24.342,88.139,0.203c24.008-21.535,29.924-55.066,15.496-79.277
			c4.928-3.93,10.719-6.467,17.068-7.107c8.955-0.9,17.574,2.103,24.742,7.854c-18.605,24.762-19.271,58.098,0.211,79.821
			c22.49,25.083,63.295,25.174,91.139,0.207c23.684-21.235,30.35-53.753,17.979-78.432c14.367-10.881,25.404-14.438,35.953-3.731
			c3.818,3.912,4.592,9.235,4.756,12.89c0.164,3.665,1.668,5.53,5.305,6.824c1.707,0.609,5.205,1.72,6.682,2.182
			c0.422,0.135,0.791,0.068,0.93-0.15c2.471-3.742,3.873-10.013,4.219-14.318C427.339,206.596,423.888,195.628,418.12,189.535z
			 M188.384,274.54c-17.521,15.709-43.588,16.04-57.736,0.258c-14.154-15.781-11.729-42.399,5.789-58.11
			c17.518-15.709,44.32-15.378,58.471,0.403C209.06,232.871,205.905,258.828,188.384,274.54z M336.579,275.517
			c-18.121,16.241-44.965,16.473-59.596,0.152c-14.639-16.32-11.939-43.431,6.176-59.679c18.125-16.245,45.844-15.905,60.479,0.418
			C358.274,232.731,354.692,259.27,336.579,275.517z"/>
		<path fill="#93885F" d="M336.88,275.948c-8.355,7.642-19.416,12.473-30.871,12.9c-5.703,0.243-11.5-0.613-16.883-2.687
			c-5.383-2.064-10.312-5.367-14.242-9.682c-3.926-4.252-6.838-9.491-8.488-15.075c-1.674-5.588-2.141-11.521-1.492-17.327
			c0.68-5.803,2.434-11.481,5.156-16.663c2.752-5.164,6.43-9.829,10.779-13.735c4.391-3.865,9.453-6.968,14.906-9.039
			c5.455-2.062,11.271-3.112,17.061-3.093c5.789,0.024,11.564,1.168,16.852,3.425c5.307,2.214,10.109,5.605,13.873,9.904
			c3.812,4.248,6.59,9.396,8.084,14.876c1.52,5.48,1.83,11.258,1.043,16.868C351.169,257.878,345.315,268.39,336.88,275.948z
			 M336.38,275.385c8.357-7.396,14.189-17.729,15.721-28.842c0.729-5.539,0.391-11.235-1.174-16.592
			c-1.572-5.353-4.373-10.322-8.166-14.378c-3.811-4.04-8.557-7.127-13.719-9.063c-5.172-1.914-10.727-2.655-16.18-2.382
			c-10.959,0.529-21.447,5.175-29.453,12.417c-4.031,3.604-7.439,7.899-9.994,12.664c-2.59,4.738-4.381,9.936-5.139,15.303
			c-0.789,5.352-0.574,10.885,0.812,16.133c1.389,5.25,3.936,10.188,7.525,14.325c3.545,4.11,8.127,7.378,13.195,9.48
			c5.074,2.115,10.623,3.1,16.16,3.011C317.079,287.256,327.999,282.772,336.38,275.385z"/>
		<path opacity="0.7" fill="#FFE882" d="M114.694,226.523c-0.465,0-0.924-0.106-1.361-0.334c-1.453-0.75-2.02-2.534-1.27-3.987
			c1.84-3.543,3.889-6.731,6.096-9.479c6.594-8.193,11.305-11.067,15.201-13.121c1.447-0.76,3.234-0.205,4,1.241
			c0.758,1.448,0.203,3.238-1.246,4c-2.605,1.369-6.969,3.665-13.34,11.592c-1.963,2.438-3.797,5.294-5.453,8.491
			C116.798,225.942,115.767,226.523,114.694,226.523z"/>
		<path opacity="0.7" fill="#FFE882" d="M215.401,198.569c-0.635,0-1.27-0.198-1.809-0.618c-1.297-1.002-1.533-2.861-0.529-4.155
			c0.291-0.368,7.188-9.116,19.289-10.271c1.633-0.152,3.072,1.039,3.227,2.669c0.156,1.625-1.041,3.069-2.668,3.224
			c-9.578,0.914-15.115,7.935-15.17,8.003C217.163,198.176,216.286,198.569,215.401,198.569z"/>
		<path opacity="0.7" fill="#FFE882" d="M360.456,197.412c-0.854,0-1.705-0.368-2.289-1.081c-1.037-1.264-0.855-3.131,0.412-4.164
			c0.438-0.362,10.896-8.86,22.469-11.064c1.605-0.305,3.152,0.751,3.457,2.354c0.307,1.606-0.742,3.157-2.354,3.462
			c-10.105,1.925-19.723,9.745-19.816,9.822C361.784,197.194,361.118,197.412,360.456,197.412z"/>
		<path fill="#93885F" d="M188.386,274.407c-8.074,7.339-18.725,11.978-29.76,12.445c-5.512,0.241-11.098-0.582-16.289-2.578
			c-5.201-1.989-9.963-5.171-13.756-9.326c-3.791-4.103-6.609-9.154-8.209-14.543c-1.619-5.395-2.076-11.121-1.453-16.725
			c0.654-5.602,2.346-11.084,4.969-16.091c2.635-5.001,6.203-9.501,10.42-13.254c4.23-3.731,9.123-6.721,14.387-8.71
			c5.273-1.983,10.885-2.987,16.471-2.963c5.582,0.035,11.15,1.135,16.246,3.322c5.096,2.171,9.725,5.421,13.375,9.549
			c3.678,4.094,6.352,9.057,7.793,14.338c1.471,5.279,1.775,10.85,1.012,16.255C202.165,256.982,196.524,267.119,188.386,274.407z
			 M187.894,273.843c8.059-7.122,13.684-17.079,15.164-27.788c0.701-5.341,0.377-10.831-1.137-15.993
			c-1.514-5.158-4.221-9.949-7.879-13.854c-3.654-3.905-8.238-6.896-13.23-8.719c-4.99-1.83-10.338-2.539-15.594-2.266
			c-10.553,0.525-20.646,5.012-28.348,11.98c-7.711,6.968-13.094,16.563-14.576,26.911c-0.768,5.151-0.555,10.475,0.773,15.528
			c1.336,5.056,3.783,9.805,7.24,13.79c3.418,3.956,7.824,7.104,12.709,9.127c4.883,2.04,10.23,2.987,15.564,2.901
			c5.34-0.088,10.674-1.186,15.654-3.177C179.216,280.278,183.839,277.408,187.894,273.843z"/>
		<path opacity="0.7" fill="#FFE882" d="M260.88,226.523c-0.459,0-0.922-0.106-1.359-0.334c-1.453-0.75-2.018-2.534-1.268-3.987
			c1.84-3.543,3.889-6.731,6.094-9.479c6.598-8.193,11.305-11.067,15.203-13.121c1.449-0.76,3.234-0.205,3.996,1.241
			c0.76,1.448,0.203,3.238-1.242,4c-2.605,1.369-6.967,3.665-13.34,11.592c-1.963,2.438-3.801,5.294-5.453,8.491
			C262.987,225.942,261.948,226.523,260.88,226.523z"/>
		<path fill="#222118" d="M330.782,248.269c-5.115,0-9.254-4.391-9.254-9.795c0-2.687,0.992-5.092,2.652-6.852
			c-2.484-1.392-5.361-2.185-8.377-2.185c-9.838,0-17.855,8.416-17.855,18.831c0,10.409,8.018,18.858,17.855,18.858
			c9.863,0,17.877-8.449,17.877-18.858c0-0.166-0.029-0.34-0.029-0.508C332.745,248.069,331.806,248.269,330.782,248.269z"/>
		<path fill="#222118" d="M188.702,248.271c-5.139,0-9.283-4.39-9.283-9.803c0-2.687,1.014-5.091,2.674-6.855
			c-2.482-1.392-5.361-2.185-8.365-2.185c-9.861,0-17.879,8.43-17.879,18.843c0,10.426,8.018,18.864,17.879,18.864
			c9.836,0,17.855-8.438,17.855-18.864c0-0.162-0.031-0.335-0.031-0.504C190.663,248.072,189.698,248.271,188.702,248.271z"/>
		<path fill="none" d="M195.108,340.886c0.84,0.124,1.688,0.246,2.547,0.365C196.796,341.132,195.948,341.01,195.108,340.886z"/>
		<path fill="none" d="M220.396,343.453c1.078,0.062,2.162,0.12,3.264,0.173C222.558,343.574,221.474,343.514,220.396,343.453z"/>
		<path fill="none" d="M384.917,293.802c0.064-0.033,0.129-0.063,0.191-0.086C385.046,293.738,384.981,293.769,384.917,293.802z"/>
		<path fill="none" d="M229.929,343.855c1.166,0.032,2.338,0.061,3.525,0.08C232.267,343.916,231.095,343.887,229.929,343.855z"/>
		<path fill="none" d="M384.562,294.033c0.096-0.077,0.189-0.141,0.281-0.193C384.751,293.892,384.657,293.955,384.562,294.033z"/>
		<path fill="none" d="M191.38,340.305c0.799,0.131,1.609,0.259,2.43,0.385C192.989,340.564,192.179,340.436,191.38,340.305z"/>
		<path fill="none" d="M198.97,341.429c0.879,0.117,1.768,0.231,2.668,0.343C200.737,341.661,199.849,341.546,198.97,341.429z"/>
		<path fill="none" d="M202.981,341.933c0.914,0.108,1.838,0.214,2.775,0.314C204.819,342.147,203.896,342.042,202.981,341.933z"/>
		<path fill="none" d="M211.415,342.801c0.994,0.087,1.994,0.171,3.01,0.25C213.411,342.972,212.409,342.888,211.415,342.801z"/>
		<path fill="none" d="M215.833,343.155c1.037,0.076,2.08,0.148,3.139,0.214C217.913,343.303,216.87,343.231,215.833,343.155z"/>
		<path fill="none" d="M207.13,342.392c0.953,0.099,1.914,0.193,2.889,0.284C209.044,342.585,208.083,342.49,207.13,342.392z"/>
		<path fill="none" d="M225.091,343.687c1.121,0.048,2.25,0.092,3.395,0.128C227.341,343.779,226.212,343.734,225.091,343.687z"/>
		<path fill="none" d="M386.997,295.031c0.004,0.012,0.008,0.023,0.012,0.032C387.005,295.051,387.003,295.047,386.997,295.031z"/>
		<path fill="none" d="M386.798,294.619c0.014,0.024,0.025,0.048,0.039,0.072C386.823,294.667,386.812,294.644,386.798,294.619z"/>
		<path fill="none" d="M385.192,293.69c0.057-0.016,0.109-0.028,0.162-0.035C385.302,293.662,385.249,293.674,385.192,293.69z"/>
		<path fill="none" d="M342.218,379.658c-0.984,0.675-1.973,1.327-2.963,1.968C340.245,380.985,341.233,380.333,342.218,379.658z"/>
		<path fill="none" d="M338.39,382.18c-0.756,0.481-1.512,0.953-2.27,1.416C336.878,383.133,337.634,382.662,338.39,382.18z"/>
		<path fill="none" d="M386.915,294.844c0.006,0.016,0.016,0.032,0.021,0.046C386.929,294.875,386.921,294.86,386.915,294.844z"/>
		<path fill="none" d="M385.507,293.639c-0.021,0-0.045,0.005-0.066,0.007c0.039-0.003,0.074-0.001,0.111,0.001
			C385.536,293.646,385.522,293.639,385.507,293.639z"/>
		<path fill="none" d="M385.858,293.702c0.008,0.003,0.016,0.008,0.025,0.012C385.874,293.709,385.866,293.705,385.858,293.702z"/>
		<path fill="none" d="M335.321,384.083c-0.98,0.59-1.961,1.165-2.945,1.724C333.36,385.249,334.341,384.673,335.321,384.083z"/>
		<path fill="none" d="M386.614,294.333c0.016,0.023,0.033,0.046,0.049,0.068C386.647,294.377,386.63,294.356,386.614,294.333z"/>
		<path fill="none" d="M386.132,293.847c0.023,0.017,0.047,0.032,0.07,0.05C386.179,293.879,386.155,293.864,386.132,293.847z"/>
		<path fill="none" d="M155.642,331.389c0.363,0.129,0.744,0.261,1.125,0.393C156.388,331.65,156.005,331.518,155.642,331.389z"/>
		<path fill="none" d="M150.769,329.566c0.275,0.109,0.572,0.223,0.863,0.336C151.341,329.789,151.044,329.674,150.769,329.566z"/>
		<path fill="none" d="M153.87,330.749c0.34,0.126,0.701,0.255,1.059,0.384C154.571,331.004,154.21,330.875,153.87,330.749z"/>
		<path fill="none" d="M148.226,328.53c0.225,0.095,0.473,0.197,0.715,0.297C148.698,328.727,148.45,328.625,148.226,328.53z"/>
		<path fill="none" d="M152.251,330.142c0.312,0.119,0.646,0.243,0.977,0.366C152.897,330.385,152.563,330.261,152.251,330.142z"/>
		<path fill="none" d="M149.425,329.027c0.248,0.101,0.518,0.208,0.781,0.313C149.942,329.235,149.673,329.127,149.425,329.027z"/>
		<path fill="none" d="M144.448,327.55c0.008-0.005,0.014-0.012,0.021-0.017C144.462,327.54,144.456,327.545,144.448,327.55z"/>
		<path fill="none" d="M147.171,328.083c0.188,0.081,0.398,0.17,0.602,0.256C147.569,328.252,147.358,328.164,147.171,328.083z"/>
		<path fill="none" d="M144.763,327.358c0.018-0.008,0.035-0.016,0.053-0.022C144.798,327.342,144.78,327.35,144.763,327.358z"/>
		<path fill="none" d="M146.253,327.683c0.133,0.059,0.287,0.125,0.432,0.188C146.54,327.808,146.386,327.742,146.253,327.683z"/>
		<path fill="none" d="M145.144,327.265c-0.01,0-0.018,0.006-0.027,0.006c0.021-0.001,0.043,0.002,0.066,0.003
			C145.169,327.273,145.157,327.265,145.144,327.265z"/>
		<path fill="none" d="M157.548,332.051c0.398,0.137,0.816,0.274,1.232,0.412C158.364,332.326,157.946,332.187,157.548,332.051z"/>
		<path fill="none" d="M161.776,333.43c0.465,0.145,0.945,0.29,1.428,0.437C162.722,333.72,162.241,333.575,161.776,333.43z"/>
		<path fill="none" d="M159.589,332.732c0.434,0.142,0.885,0.285,1.338,0.429C160.474,333.017,160.022,332.874,159.589,332.732z"/>
		<path fill="none" d="M386.417,294.09c0.018,0.02,0.033,0.04,0.051,0.06C386.45,294.129,386.435,294.11,386.417,294.09z"/>
		<path fill="none" d="M238.569,343.98c-1.24-0.001-2.463-0.013-3.68-0.027C236.106,343.967,237.329,343.978,238.569,343.98z"/>
		<path fill="none" d="M331.284,386.414c0.164-0.092,0.328-0.182,0.492-0.273c-0.162,0.091-0.326,0.177-0.488,0.267
			C331.286,386.409,331.286,386.411,331.284,386.414z"/>
		<path fill="#322B17" d="M230.573,371.706c13.605-1.106,37.631-1.52,51.508-0.793c22.641,1.186,53.92,8.818,49.207,15.494
			c0.162-0.09,0.326-0.176,0.488-0.267c0.199-0.112,0.4-0.22,0.6-0.333c0.984-0.559,1.965-1.134,2.945-1.724
			c0.268-0.16,0.533-0.325,0.799-0.487c0.758-0.463,1.514-0.935,2.27-1.416c0.289-0.184,0.578-0.367,0.865-0.555
			c0.99-0.641,1.979-1.293,2.963-1.968c37.852-25.929,44.807-84.553,44.807-84.553s-0.008-0.023-0.016-0.042
			c-0.004-0.009-0.008-0.021-0.012-0.032c-0.016-0.036-0.035-0.084-0.061-0.141c-0.006-0.014-0.016-0.03-0.021-0.046
			c-0.023-0.047-0.051-0.099-0.078-0.153c-0.014-0.024-0.025-0.048-0.039-0.072c-0.041-0.07-0.086-0.144-0.135-0.218
			c-0.016-0.022-0.033-0.045-0.049-0.068c-0.045-0.062-0.094-0.123-0.146-0.183c-0.018-0.02-0.033-0.04-0.051-0.06
			c-0.066-0.07-0.139-0.135-0.215-0.193c-0.023-0.018-0.047-0.033-0.07-0.05c-0.078-0.053-0.16-0.1-0.248-0.134
			c-0.01-0.004-0.018-0.009-0.025-0.012c-0.096-0.034-0.199-0.05-0.307-0.055c-0.037-0.002-0.072-0.004-0.111-0.001
			c-0.027,0.002-0.057,0.005-0.086,0.009c-0.053,0.007-0.105,0.02-0.162,0.035c-0.027,0.009-0.057,0.016-0.084,0.026
			c-0.062,0.022-0.127,0.053-0.191,0.086c-0.025,0.013-0.049,0.022-0.074,0.037c-0.092,0.053-0.186,0.116-0.281,0.193
			c-11.436,9.155-55.607,48.966-141.768,49.933c-1.295,0.014-2.574,0.018-3.838,0.018c-0.131,0-0.256-0.003-0.387-0.003
			c-1.24-0.002-2.463-0.013-3.68-0.027c-0.479-0.006-0.961-0.01-1.436-0.018c-1.188-0.02-2.359-0.048-3.525-0.08
			c-0.48-0.013-0.967-0.024-1.443-0.04c-1.145-0.036-2.273-0.08-3.395-0.128c-0.479-0.021-0.959-0.04-1.432-0.062
			c-1.102-0.053-2.186-0.111-3.264-0.173c-0.475-0.027-0.951-0.055-1.424-0.084c-1.059-0.065-2.102-0.138-3.139-0.214
			c-0.471-0.034-0.941-0.067-1.408-0.104c-1.016-0.079-2.016-0.163-3.01-0.25c-0.467-0.042-0.934-0.082-1.396-0.125
			c-0.975-0.091-1.936-0.186-2.889-0.284c-0.461-0.048-0.92-0.095-1.373-0.145c-0.938-0.101-1.861-0.206-2.775-0.314
			c-0.451-0.053-0.9-0.106-1.344-0.161c-0.9-0.111-1.789-0.226-2.668-0.343c-0.441-0.059-0.879-0.118-1.314-0.178
			c-0.859-0.119-1.707-0.241-2.547-0.365c-0.436-0.065-0.869-0.13-1.299-0.196c-0.82-0.126-1.631-0.254-2.43-0.385
			c-0.426-0.07-0.848-0.141-1.268-0.211c-0.785-0.133-1.561-0.267-2.326-0.403c-0.412-0.074-0.82-0.148-1.229-0.224
			c-0.748-0.138-1.49-0.276-2.219-0.417c-0.404-0.079-0.803-0.157-1.201-0.237c-0.711-0.142-1.416-0.283-2.109-0.428
			c-0.393-0.082-0.777-0.165-1.164-0.247c-0.678-0.146-1.35-0.291-2.01-0.438c-0.377-0.084-0.746-0.169-1.117-0.254
			c-0.645-0.148-1.285-0.296-1.91-0.445c-0.367-0.088-0.727-0.176-1.088-0.264c-0.607-0.148-1.211-0.296-1.801-0.445
			c-0.354-0.09-0.699-0.181-1.047-0.271c-0.576-0.149-1.148-0.298-1.707-0.447c-0.338-0.091-0.666-0.182-0.998-0.272
			c-0.543-0.148-1.082-0.297-1.607-0.445c-0.326-0.092-0.641-0.184-0.959-0.275c-0.512-0.147-1.021-0.295-1.514-0.441
			c-0.309-0.091-0.604-0.182-0.902-0.272c-0.482-0.146-0.963-0.292-1.428-0.437c-0.289-0.091-0.566-0.18-0.85-0.27
			c-0.453-0.144-0.904-0.287-1.338-0.429c-0.277-0.091-0.541-0.179-0.809-0.269c-0.416-0.138-0.834-0.275-1.232-0.412
			c-0.268-0.091-0.521-0.18-0.781-0.27c-0.381-0.132-0.762-0.264-1.125-0.393c-0.246-0.087-0.475-0.171-0.713-0.257
			c-0.357-0.129-0.719-0.258-1.059-0.384c-0.223-0.081-0.428-0.159-0.643-0.24c-0.33-0.123-0.664-0.247-0.977-0.366
			c-0.215-0.083-0.412-0.16-0.619-0.24c-0.291-0.113-0.588-0.227-0.863-0.336c-0.195-0.077-0.375-0.15-0.562-0.226
			c-0.264-0.105-0.533-0.213-0.781-0.313c-0.17-0.069-0.322-0.133-0.484-0.2c-0.242-0.1-0.49-0.202-0.715-0.297
			c-0.16-0.066-0.301-0.127-0.453-0.191c-0.203-0.086-0.414-0.175-0.602-0.256c-0.174-0.075-0.326-0.142-0.486-0.212
			c-0.145-0.062-0.299-0.129-0.432-0.188c-0.281-0.124-0.539-0.238-0.773-0.343c-0.1-0.047-0.199-0.062-0.297-0.066
			c-0.023-0.001-0.045-0.004-0.066-0.003c-0.102,0.004-0.203,0.025-0.301,0.064c-0.018,0.007-0.035,0.015-0.053,0.022
			c-0.102,0.045-0.199,0.104-0.293,0.176c-0.008,0.005-0.014,0.012-0.021,0.017c-0.625,0.494-1.072,1.459-1.072,1.459
			s13.756,34.075,50.125,55.955c-0.264-0.337-0.471-0.662-0.566-0.961C190.964,377.763,218.741,372.667,230.573,371.706z"/>
		<path fill="#F7B20A" d="M218.972,343.369c0.473,0.029,0.949,0.057,1.424,0.084C219.921,343.425,219.442,343.398,218.972,343.369z"
			/>
		<path fill="#F7B20A" d="M242.794,343.965c-1.428,0.016-2.828,0.017-4.225,0.015c0.131,0,0.256,0.003,0.387,0.003
			C240.22,343.983,241.499,343.979,242.794,343.965z"/>
		<path fill="#F7B20A" d="M151.632,329.902c0.207,0.08,0.404,0.157,0.619,0.24C152.036,330.06,151.839,329.982,151.632,329.902z"/>
		<path fill="#F7B20A" d="M214.425,343.051c0.467,0.036,0.938,0.069,1.408,0.104C215.362,343.121,214.892,343.087,214.425,343.051z"
			/>
		<path fill="#F7B20A" d="M210.019,342.676c0.463,0.043,0.93,0.083,1.396,0.125C210.948,342.759,210.481,342.719,210.019,342.676z"
			/>
		<path fill="#F7B20A" d="M205.757,342.248c0.453,0.05,0.912,0.097,1.373,0.145C206.671,342.344,206.21,342.297,205.757,342.248z"/>
		<path fill="#F7B20A" d="M384.843,293.839c0.025-0.015,0.049-0.024,0.074-0.037C384.892,293.815,384.868,293.825,384.843,293.839z"
			/>
		<path fill="#F7B20A" d="M385.354,293.655c0.029-0.004,0.059-0.007,0.086-0.009C385.413,293.648,385.384,293.65,385.354,293.655z"
			/>
		<path fill="#F7B20A" d="M148.94,328.827c0.162,0.067,0.314,0.131,0.484,0.2C149.255,328.958,149.103,328.894,148.94,328.827z"/>
		<path fill="#F7B20A" d="M223.659,343.625c0.473,0.021,0.953,0.041,1.432,0.062C224.612,343.667,224.132,343.647,223.659,343.625z"
			/>
		<path fill="#F7B20A" d="M385.108,293.716c0.027-0.011,0.057-0.018,0.084-0.026C385.165,293.699,385.136,293.706,385.108,293.716z"
			/>
		<path fill="#F7B20A" d="M228.485,343.815c0.477,0.016,0.963,0.027,1.443,0.04C229.448,343.842,228.962,343.831,228.485,343.815z"
			/>
		<path fill="#F7B20A" d="M150.206,329.34c0.188,0.075,0.367,0.148,0.562,0.226C150.573,329.489,150.394,329.416,150.206,329.34z"/>
		<path fill="#F7B20A" d="M233.454,343.935c0.475,0.008,0.957,0.012,1.436,0.018C234.411,343.947,233.929,343.943,233.454,343.935z"
			/>
		<path fill="#F7B20A" d="M156.767,331.782c0.26,0.09,0.514,0.179,0.781,0.27C157.28,331.96,157.026,331.872,156.767,331.782z"/>
		<path fill="#F7B20A" d="M201.638,341.772c0.443,0.055,0.893,0.108,1.344,0.161C202.53,341.88,202.081,341.827,201.638,341.772z"/>
		<path fill="#F7B20A" d="M163.204,333.867c0.299,0.091,0.594,0.182,0.902,0.272C163.8,334.048,163.503,333.958,163.204,333.867z"/>
		<path fill="#F7B20A" d="M160.927,333.161c0.283,0.09,0.561,0.179,0.85,0.27C161.487,333.339,161.208,333.25,160.927,333.161z"/>
		<path fill="#F7B20A" d="M193.81,340.69c0.43,0.066,0.863,0.131,1.299,0.196C194.673,340.821,194.239,340.756,193.81,340.69z"/>
		<path fill="#F7B20A" d="M158.78,332.463c0.268,0.09,0.531,0.178,0.809,0.269C159.312,332.642,159.048,332.553,158.78,332.463z"/>
		<path fill="#F7B20A" d="M190.112,340.094c0.42,0.07,0.842,0.141,1.268,0.211C190.954,340.235,190.532,340.165,190.112,340.094z"/>
		<path fill="#F7B20A" d="M197.655,341.251c0.436,0.06,0.873,0.119,1.314,0.178C198.53,341.371,198.091,341.311,197.655,341.251z"/>
		<path fill="#F7B20A" d="M154.929,331.132c0.238,0.086,0.467,0.17,0.713,0.257C155.397,331.302,155.167,331.218,154.929,331.132z"
			/>
		<path fill="#F7B20A" d="M385.552,293.647c0.107,0.005,0.211,0.021,0.307,0.055C385.763,293.667,385.659,293.652,385.552,293.647z"
			/>
		<path fill="#F7B20A" d="M153.228,330.508c0.215,0.081,0.42,0.159,0.643,0.24C153.647,330.667,153.442,330.588,153.228,330.508z"/>
		<path fill="#F7B20A" d="M146.685,327.871c0.16,0.07,0.312,0.137,0.486,0.212C146.997,328.007,146.845,327.941,146.685,327.871z"/>
		<path fill="#F7B20A" d="M144.47,327.534c0.094-0.072,0.191-0.131,0.293-0.176C144.661,327.403,144.563,327.461,144.47,327.534z"/>
		<path fill="#F7B20A" d="M386.837,294.691c0.027,0.055,0.055,0.106,0.078,0.153C386.892,294.797,386.866,294.746,386.837,294.691z"
			/>
		<path fill="#F7B20A" d="M386.937,294.89c0.025,0.057,0.045,0.104,0.061,0.141C386.981,294.994,386.962,294.949,386.937,294.89z"/>
		<path fill="#F7B20A" d="M387.009,295.063c0.008,0.019,0.016,0.042,0.016,0.042S387.019,295.087,387.009,295.063z"/>
		<path fill="#F7B20A" d="M339.255,381.625c-0.287,0.188-0.576,0.371-0.865,0.555C338.679,381.997,338.968,381.813,339.255,381.625z
			"/>
		<path fill="#F7B20A" d="M145.183,327.274c0.098,0.004,0.197,0.02,0.297,0.066C145.38,327.295,145.28,327.279,145.183,327.274z"/>
		<path fill="#F7B20A" d="M336.12,383.596c-0.266,0.162-0.531,0.327-0.799,0.487C335.589,383.923,335.854,383.758,336.12,383.596z"
			/>
		<path fill="#F7B20A" d="M144.815,327.335c0.098-0.039,0.199-0.061,0.301-0.064C145.013,327.275,144.913,327.297,144.815,327.335z"
			/>
		<path fill="#F7B20A" d="M332.376,385.807c-0.199,0.113-0.4,0.221-0.6,0.333C331.976,386.028,332.177,385.92,332.376,385.807z"/>
		<path fill="#F7B20A" d="M145.479,327.34c0.234,0.104,0.492,0.219,0.773,0.343C145.972,327.559,145.714,327.445,145.479,327.34z"/>
		<path fill="#F7B20A" d="M386.202,293.897c0.076,0.059,0.148,0.123,0.215,0.193C386.351,294.02,386.278,293.956,386.202,293.897z"
			/>
		<path fill="#F7B20A" d="M386.468,294.15c0.053,0.06,0.102,0.121,0.146,0.183C386.569,294.27,386.521,294.209,386.468,294.15z"/>
		<path fill="#F7B20A" d="M385.884,293.713c0.088,0.034,0.17,0.081,0.248,0.134C386.054,293.794,385.972,293.748,385.884,293.713z"
			/>
		<path fill="#F7B20A" d="M147.772,328.338c0.152,0.064,0.293,0.125,0.453,0.191C148.065,328.463,147.925,328.403,147.772,328.338z"
			/>
		<path fill="#F7B20A" d="M144.448,327.55c-0.627,0.493-1.072,1.459-1.072,1.459S143.823,328.044,144.448,327.55z"/>
		<path fill="#F7B20A" d="M386.663,294.401c0.049,0.074,0.094,0.147,0.135,0.218C386.757,294.548,386.712,294.475,386.663,294.401z"
			/>
		<path fill="#934441" d="M258.849,406.15c0.219,0.009,0.441,0.008,0.662,0.014c-0.322-0.01-0.643-0.019-0.963-0.03
			C258.646,406.137,258.749,406.146,258.849,406.15z"/>
		<path fill="#934441" d="M318.39,392.69c-0.9,0.379-1.801,0.748-2.701,1.104C316.589,393.438,317.489,393.069,318.39,392.69z"/>
		<path fill="#934441" d="M258.292,403.164c-0.52-0.021-1.037-0.043-1.555-0.068C257.255,403.121,257.772,403.143,258.292,403.164z"
			/>
		<path fill="#934441" d="M255.032,403.002c-0.531-0.032-1.061-0.064-1.588-0.102C253.972,402.938,254.501,402.97,255.032,403.002z"
			/>
		<path fill="#934441" d="M321.583,391.292c-0.744,0.337-1.49,0.667-2.236,0.988C320.093,391.959,320.839,391.629,321.583,391.292z"
			/>
		<path fill="#934441" d="M242.142,401.725c-0.461-0.063-0.924-0.123-1.381-0.19C241.218,401.602,241.681,401.662,242.142,401.725z"
			/>
		<path fill="#934441" d="M304.827,397.548c-0.822,0.244-1.645,0.48-2.467,0.708C303.183,398.029,304.005,397.792,304.827,397.548z"
			/>
		<path fill="#934441" d="M301.405,398.517c-0.779,0.21-1.561,0.412-2.34,0.606C299.845,398.929,300.626,398.727,301.405,398.517z"
			/>
		<path fill="#934441" d="M245.423,402.145c-0.523-0.062-1.047-0.121-1.566-0.188C244.376,402.024,244.899,402.083,245.423,402.145z
			"/>
		<path fill="#934441" d="M311.466,395.377c-0.74,0.264-1.48,0.52-2.221,0.769C309.985,395.897,310.726,395.641,311.466,395.377z"/>
		<path fill="#934441" d="M248.61,402.492c-0.537-0.053-1.074-0.105-1.609-0.163C247.536,402.386,248.073,402.439,248.61,402.492z"
			/>
		<path fill="#934441" d="M308.362,396.443c-0.986,0.324-1.973,0.638-2.961,0.937C306.39,397.081,307.376,396.767,308.362,396.443z"
			/>
		<path fill="#934441" d="M251.808,402.778c-0.537-0.043-1.074-0.086-1.607-0.134C250.733,402.692,251.271,402.735,251.808,402.778z
			"/>
		<path fill="#934441" d="M315.376,393.92c-0.988,0.388-1.979,0.758-2.967,1.119C313.397,394.678,314.388,394.308,315.376,393.92z"
			/>
		<path fill="#934441" d="M291.421,400.801c-0.902,0.172-1.805,0.335-2.705,0.486C289.616,401.136,290.519,400.973,291.421,400.801z
			"/>
		<path fill="#934441" d="M274.774,402.933c-0.799,0.055-1.594,0.104-2.387,0.146C273.181,403.037,273.976,402.988,274.774,402.933z
			"/>
		<path fill="#934441" d="M294.63,400.153c-0.771,0.165-1.543,0.324-2.312,0.475C293.087,400.477,293.858,400.318,294.63,400.153z"
			/>
		<path fill="#934441" d="M271.784,403.111c-0.98,0.048-1.955,0.086-2.93,0.114C269.829,403.197,270.804,403.159,271.784,403.111z"
			/>
		<path fill="#934441" d="M284.618,401.915c-0.768,0.106-1.535,0.207-2.301,0.3C283.083,402.122,283.851,402.021,284.618,401.915z"
			/>
		<path fill="#934441" d="M298.358,399.302c-0.99,0.241-1.979,0.471-2.965,0.688C296.38,399.772,297.368,399.543,298.358,399.302z"
			/>
		<path fill="#934441" d="M278.263,402.653c-0.893,0.083-1.785,0.156-2.674,0.223C276.479,402.809,277.37,402.736,278.263,402.653z"
			/>
		<path fill="#934441" d="M281.534,402.31c-0.992,0.115-1.982,0.222-2.969,0.315C279.552,402.532,280.542,402.425,281.534,402.31z"
			/>
		<path fill="#934441" d="M288.421,401.339c-0.994,0.166-1.988,0.317-2.98,0.461C286.433,401.657,287.427,401.505,288.421,401.339z"
			/>
		<path fill="#934441" d="M268.274,403.238c-0.795,0.021-1.588,0.034-2.377,0.042C266.687,403.272,267.479,403.258,268.274,403.238z
			"/>
		<path fill="#934441" d="M329.358,387.463c0.643-0.344,1.283-0.694,1.926-1.05c0.002-0.003,0.002-0.005,0.004-0.007
			C330.646,386.764,330.001,387.12,329.358,387.463z"/>
		<path fill="#934441" d="M328.411,387.964c-0.787,0.411-1.574,0.813-2.361,1.206C326.837,388.778,327.624,388.375,328.411,387.964z
			"/>
		<path fill="#934441" d="M261.593,403.259c-0.508-0.01-1.016-0.022-1.521-0.037C260.577,403.237,261.085,403.25,261.593,403.259z"
			/>
		<path fill="#934441" d="M325.376,389.508c-0.982,0.482-1.967,0.949-2.951,1.403C323.409,390.458,324.394,389.991,325.376,389.508z
			"/>
		<path fill="#934441" d="M264.435,403.291c0.223,0,0.447-0.004,0.67-0.005c-0.559,0.002-1.115-0.003-1.672-0.006
			C263.767,403.282,264.099,403.291,264.435,403.291z"/>
		<path fill="#934441" d="M240.761,401.535c-1.021-0.149-2.037-0.306-3.045-0.472C238.724,401.228,239.739,401.385,240.761,401.535z
			"/>
		<path fill="#934441" d="M305.401,397.379c-0.191,0.058-0.383,0.111-0.574,0.169C305.019,397.491,305.21,397.437,305.401,397.379z"
			/>
		<path fill="#934441" d="M299.065,399.124c-0.236,0.06-0.471,0.121-0.707,0.179C298.595,399.245,298.829,399.183,299.065,399.124z"
			/>
		<path fill="#934441" d="M295.394,399.99c-0.254,0.057-0.51,0.108-0.764,0.163C294.884,400.098,295.14,400.046,295.394,399.99z"/>
		<path fill="#934441" d="M329.358,387.463c-0.316,0.168-0.633,0.335-0.947,0.501C328.726,387.798,329.042,387.631,329.358,387.463z
			"/>
		<path fill="#934441" d="M326.05,389.17c-0.225,0.111-0.449,0.228-0.674,0.338C325.601,389.398,325.825,389.282,326.05,389.17z"/>
		<path fill="#934441" d="M288.716,401.288c-0.098,0.017-0.197,0.035-0.295,0.052C288.519,401.323,288.618,401.304,288.716,401.288z
			"/>
		<path fill="#934441" d="M292.317,400.627c-0.299,0.059-0.598,0.118-0.896,0.174C291.72,400.746,292.019,400.686,292.317,400.627z"
			/>
		<path fill="#934441" d="M302.36,398.256c-0.318,0.089-0.637,0.175-0.955,0.261C301.724,398.431,302.042,398.345,302.36,398.256z"
			/>
		<path fill="#934441" d="M309.245,396.146c-0.293,0.099-0.588,0.2-0.883,0.297C308.657,396.346,308.952,396.245,309.245,396.146z"
			/>
		<path fill="#934441" d="M322.425,390.912c-0.279,0.13-0.561,0.254-0.842,0.381C321.864,391.166,322.146,391.042,322.425,390.912z"
			/>
		<path fill="#934441" d="M243.856,401.958c-0.574-0.073-1.145-0.153-1.715-0.232C242.712,401.803,243.282,401.884,243.856,401.958z
			"/>
		<path fill="#934441" d="M285.44,401.8c-0.273,0.04-0.547,0.076-0.822,0.114C284.894,401.876,285.167,401.84,285.44,401.8z"/>
		<path fill="#934441" d="M319.347,392.281c-0.318,0.137-0.637,0.274-0.957,0.409C318.71,392.555,319.028,392.417,319.347,392.281z"
			/>
		<path fill="#934441" d="M315.688,393.794c-0.105,0.041-0.209,0.086-0.312,0.126C315.479,393.88,315.583,393.835,315.688,393.794z"
			/>
		<path fill="#934441" d="M312.409,395.04c-0.314,0.114-0.629,0.226-0.943,0.338C311.78,395.265,312.095,395.154,312.409,395.04z"/>
		<path fill="#934441" d="M256.737,403.095c-0.57-0.028-1.139-0.06-1.705-0.093C255.599,403.036,256.167,403.067,256.737,403.095z"
			/>
		<path fill="#934441" d="M253.444,402.901c-0.547-0.038-1.092-0.08-1.637-0.123C252.353,402.821,252.897,402.863,253.444,402.901z"
			/>
		<path fill="#934441" d="M282.317,402.214c-0.26,0.032-0.521,0.065-0.783,0.096C281.796,402.28,282.058,402.247,282.317,402.214z"
			/>
		<path fill="#934441" d="M263.433,403.28c-0.615-0.004-1.229-0.01-1.84-0.021C262.204,403.27,262.817,403.275,263.433,403.28z"/>
		<path fill="#934441" d="M250.2,402.644c-0.531-0.047-1.061-0.1-1.59-0.152C249.14,402.544,249.669,402.597,250.2,402.644z"/>
		<path fill="#934441" d="M247.001,402.329c-0.527-0.058-1.053-0.121-1.578-0.184C245.948,402.208,246.474,402.271,247.001,402.329z
			"/>
		<path fill="#934441" d="M260.071,403.222c-0.596-0.017-1.189-0.035-1.779-0.059C258.882,403.187,259.476,403.206,260.071,403.222z
			"/>
		<path fill="#934441" d="M275.589,402.875c-0.271,0.02-0.543,0.039-0.814,0.058C275.046,402.915,275.317,402.895,275.589,402.875z"
			/>
		<path fill="#934441" d="M265.897,403.28c-0.264,0.002-0.529,0.005-0.793,0.006C265.368,403.285,265.634,403.282,265.897,403.28z"
			/>
		<path fill="#934441" d="M278.565,402.625c-0.102,0.01-0.203,0.018-0.303,0.027C278.364,402.643,278.464,402.635,278.565,402.625z"
			/>
		<path fill="#934441" d="M268.854,403.225c-0.193,0.006-0.387,0.008-0.58,0.013C268.468,403.233,268.661,403.231,268.854,403.225z"
			/>
		<path fill="#934441" d="M272.388,403.079c-0.201,0.01-0.402,0.022-0.604,0.032C271.985,403.101,272.187,403.088,272.388,403.079z"
			/>
		<path fill="#663329" d="M250.874,363.987c-57.973,2.091-77.158,6.248-75.064,8.073c5.17,4.51,11.051,8.886,17.662,12.868
			c-0.248-0.323-0.445-0.637-0.537-0.925c-1.971-6.24,25.807-11.336,37.639-12.298c13.605-1.106,37.631-1.52,51.508-0.793
			c22.641,1.186,53.92,8.818,49.207,15.494c3.666-2.034,7.312-4.271,10.93-6.749c2.285-1.567,4.461-3.25,6.527-5.031
			C351.911,371.886,308.858,361.898,250.874,363.987z"/>
		<path fill="#934441" d="M282.081,370.913c-13.877-0.727-37.902-0.313-51.508,0.793c-11.832,0.962-39.609,6.058-37.639,12.298
			c0.092,0.288,0.289,0.602,0.537,0.925c12.129,7.303,26.756,13.26,44.244,16.135c28.025,4.603,61.539,3.125,93.572-14.656
			C336.001,379.731,304.722,372.098,282.081,370.913z"/>
		<path fill="#D60B52" d="M475.331,253.553c9.127-84.66-26.889-164.198-80.15-212.758c-26.783-24.424-67.074-37.061-91.002-37.168
			c-2.5-0.019-4.826,0.1-6.953,0.363c-8.176,1.012-10.947,6.549-11.057,11.153c-0.26,10.493,58.436,7.445,105.584,57.742
			c40.939,43.67,67.699,96.312,69.434,155.392c2.248,76.264-19.191,134.399-19.191,134.399
			C458.786,334.833,470.78,295.717,475.331,253.553z"/>
		<path fill="#951B81" d="M474.972,197.651c-7.07-64.105-36.238-117.58-79.791-156.855C368.263,16.52,328.106,3.631,304.179,3.627
			c-8.764-0.002-15.529,1.545-15.945,6.297c-0.369,4.232,12.018,5.697,24.811,8.84c22.18,5.45,54.473,15.948,87.951,47.353
			c25.064,23.514,48.42,63.417,58.779,93.468C470.552,190.861,474.972,197.651,474.972,197.651z"/>
		<path fill="#5F2C86" d="M298.331,8.743c-2.141-0.312-4.699-0.814-4.699-2.746c0-2.174,3.631-2.371,10.547-2.369
			c23.928,0.004,64.426,12.718,91.002,37.168c20.449,18.809,21.248,21.608,31.355,34.022c0,0-29.926-37.302-88.928-57.142
			C310.19,8.457,307.286,10.039,298.331,8.743z"/>
		<path fill="#D60B52" d="M370.522,96.446c-23.162-21.416-44.844-33.924-71.662-41.81c-40.16-11.815-86.588-11.013-101.602-10.41
			l-1.252-0.034c-18.273,0-63.174-28.193-114.385-1.115c-44.43,23.495-40.193,76.064-49.031,90.394
			c-8.334,13.517-19.424,39.788-22.455,65.271c-2.34,19.703-1.221,46.604,2.488,57.239c0.141,0.479,0.324,0.937,0.535,1.38
			c0.021,0.049,0.043,0.102,0.061,0.146h0.01c1.566,3.171,4.83,5.358,8.609,5.358c5.15,0,9.342-4.047,9.592-9.132l0.01-0.002
			c0-0.02,0-0.04-0.006-0.062c0.006-0.142-0.018-1.303-0.078-1.731c-0.777-19.849,2.15-51.946,20.855-89.188
			c14.973-29.826,55.736-62.132,73.098-64.662c0,0,5.775-1.284,7.338,1.325c2.283,3.802-0.523,7.264-0.539,7.286
			c-0.004,0.005-0.008,0.009-0.012,0.014c-0.305,0.639-0.711,1.22-1.209,1.713c-0.75,0.764-1.811,1.87-3.1,3.25
			c-11.295,12.076-41.322,46.274-56.564,76.939c-21.953,44.155-29.715,90.337-22.969,153.175
			c5.748,53.634,27.711,105.869,61.695,128.76c12.908,8.688,31.406,13.396,38.488,10.108l-27.943-17.939
			c-19.174-12.838-19.537-42.34-15.09-35.025c-7.52-12.966-13.572-28.549-17.861-43.863c-8.15-14.049-14.756-29.172-19.586-45.115
			c-5.838-19.279-9.068-39.759-9.26-60.994c-0.01-0.675-0.016-1.344-0.016-2.003c0-42.74,14.428-80.38,35.557-113.531
			c15.508-22.032,27.355-33.903,46.219-51.902c9.492-9.054-4.852-20.882,7.354-36.185c5.234-6.565,26.459-11.825,49.297-14.238
			c28.756-3.033,65.346-1.788,85.908,2.093c52.795,9.953,97.924,44.612,97.924,44.612C377.421,102.986,373.956,99.62,370.522,96.446
			z M137.046,57.429v0.02c-11.158,2.972-30.385,11.415-43.635,22.139c-19.576,15.85-32.664,33.171-35.393,36.512
			c-0.031,0.048-0.072,0.09-0.107,0.132c-0.004,0.005-0.01,0.011-0.01,0.014C57.526,116.704,56.97,117,56.327,117
			c-1.123,0-2.033-0.91-2.033-2.033c0-0.166,0.023-0.322,0.062-0.479c1.133-8.297,11.389-32.53,30.941-48.087
			c14.652-11.658,37.617-18.735,51.014-16.31c0.203,0.02,0.395,0.056,0.586,0.108c0.047,0.008,0.098,0.015,0.148,0.025v0.02
			c1.525,0.486,2.641,1.904,2.641,3.594C139.687,55.528,138.571,56.941,137.046,57.429z"/>
		<path fill="#EC6608" d="M105.405,427.692c0.033,0.057,0.066,0.114,0.1,0.172C105.472,427.806,105.437,427.745,105.405,427.692z"/>
		<path fill="#951B81" d="M48.255,342.106c5.748,53.634,27.711,105.872,61.695,128.763c12.908,8.686,31.406,13.075,38.488,9.788
			c0,0,3.232-1.411,3.75-3.164c0.639-2.171-2.953-3.8-6.871-4.35c-3.568-0.503-17.48-1.823-46.662-31.005
			C58.362,401.847,48.255,342.106,48.255,342.106z"/>
		<path fill="#5F2C86" d="M146.159,481.666c-8.465,1.399-24.6-2.985-36.209-10.797c-17.76-11.967-32.24-31.947-42.834-55.951
			c0,0,9.32,15.812,16.023,23.988c4.508,5.509,17.143,18.451,23.234,22.981c9.846,7.312,19.557,11.618,24.623,13.133
			c9.312,2.786,12.965,2.697,14.186,2.697C148.761,477.717,148.956,481.202,146.159,481.666z"/>
		<path fill="#D60B52" d="M521.603,259.422c-0.016-0.21-0.047-0.415-0.078-0.623c-0.008-0.053-0.014-0.117-0.023-0.172h-0.008
			c-0.717-3.877-4.107-6.813-8.193-6.813c-3.955,0-7.268,2.76-8.119,6.458c-1.947,7.271-7.918,40.869-29.176,83.517
			c-18.559,37.225-52.824,61.824-57.846,61.171c0,0,4.135,9.062-7.232,22.025c-8.207,9.361-22.463,16.237-40.432,20.189
			c-18.535,4.073-39.979,6.36-60.418,8.614c-17.664,1.945-51.723,1.345-62.637,0.982c-10.617-0.351-14.529,7.447-15.756,10.062
			c-33.189-7.78-94.211-41.636-126.488-85.972c0.162,0.347,0.318,0.695,0.484,1.042c17.23,36.025,61.088,62.652,72.572,73.617
			c11.486,10.959,33.416,50.118,99.725,53.249c66.307,3.137,85.621-39.152,95.543-48.551c9.92-9.399,57.201-3.882,103.15-59.747
			C511.544,356.069,525.788,288.543,521.603,259.422z M338.196,467.515c-3.904,4.44-25.068,12.156-46.057,12.653
			c-24.643,0.583-42.156-3.747-45.65-7.202l0.018-0.055c-1.006-0.854-1.686-2.098-1.787-3.52c-0.209-2.815,1.906-5.266,4.725-5.469
			c0.141,0,0.414,0.004,0.781,0.018c0.086,0.007,0.182,0,0.268,0.009c5.146,0.212,26.16,1.373,40.008,0.98
			c16.006-0.451,33.719-1.91,43.906-3.356l0.051,0.082c0.24-0.073,0.5-0.122,0.762-0.144c1.99-0.146,3.729,1.354,3.877,3.347
			c0.07,1.007-0.279,1.952-0.9,2.649V467.515z"/>
		<path fill="#951B81" d="M377.069,455.993c5.012-2.597,16.826-4.805,17.982-5.087c43.588-10.523,68.695-36.567,81.619-52.435
			c28.703-35.235,43.604-87.416,45.443-120.909c0.385-6.968,1.939-18.975-4.689-19.045c-4.688-0.047-6.102,3.599-7.557,11.423
			c-3.301,17.719-6.361,33.383-13.09,57.056c-7.424,26.115-22.43,53.329-39.014,73.689c-18.936,23.247-38.881,37.373-62.5,45.533
			c-7.676,2.651-18.285,4.294-23.566,7.381c-10.92,6.379-9.85,18.891-9.85,18.891C370.003,461.503,375.313,456.902,377.069,455.993z
			"/>
		<path fill="#5F2C86" d="M404.458,448.318c39.955-12.152,63.123-38.774,72.213-49.847c28.838-35.125,43.604-87.416,45.443-120.909
			c0.385-6.968-0.701-10.006-3.648-10.006c-2.941,0-2.439,7.745-3.637,15.506c-3.932,25.426-10.166,53.997-20.627,77.008
			c-7,15.401-24.416,39.333-46.863,61.092C430.081,437.892,404.458,448.318,404.458,448.318z"/>
		<path fill="#EC6608" d="M339.167,464.062l-0.203,0.064c0.066,0.233,0.111,0.477,0.133,0.732c0.07,1.007-0.279,1.952-0.9,2.649
			v0.007c-3.904,4.44-25.068,12.156-46.057,12.653c-24.643,0.583-42.156-3.747-45.65-7.202l0.018-0.055
			c-1.006-0.854-1.686-2.098-1.787-3.52c-0.129-1.693,0.6-3.243,1.805-4.268h-0.008c-3.242,1.302-3.895,6.712-2.672,9.008
			c3.338,6.253,20.598,11.057,37.592,11.521C307.864,486.377,344.624,474.411,339.167,464.062z"/>
		<path fill="none" d="M338.694,463.453c-0.008-0.015-0.02-0.027-0.027-0.043c-0.102-0.188-0.217-0.369-0.348-0.535
			c-0.08-0.1-0.174-0.184-0.264-0.274c-0.07-0.073-0.135-0.153-0.211-0.22c-0.17-0.146-0.354-0.275-0.547-0.388
			c-0.006-0.003-0.01-0.008-0.016-0.011c-0.605-0.348-1.316-0.524-2.062-0.47c-0.262,0.021-0.521,0.07-0.762,0.144l-0.051-0.082
			c-10.188,1.446-27.9,2.905-43.906,3.356c-13.848,0.393-34.861-0.769-40.008-0.98c-0.086-0.009-0.182-0.002-0.268-0.009
			c-0.367-0.014-0.641-0.018-0.781-0.018c-2.818,0.203-4.934,2.653-4.725,5.469c0.023,0.347,0.086,0.683,0.176,1.005
			c0.086,0.305,0.203,0.594,0.34,0.871c0.008,0.015,0.012,0.031,0.018,0.046c0.287,0.564,0.68,1.063,1.143,1.482
			c0.039,0.036,0.07,0.08,0.111,0.115l-0.018,0.055c3.494,3.455,21.008,7.785,45.65,7.202c20.988-0.497,42.152-8.213,46.057-12.653
			v-0.007c0.621-0.697,0.971-1.643,0.9-2.649c-0.002-0.012-0.006-0.022-0.006-0.033h-0.002
			C339.048,464.331,338.909,463.868,338.694,463.453z"/>
		<path fill="#951B81" d="M186.813,463.137c21.229,24.726,48.166,41.604,91.164,43.632c66.307,3.137,85.621-39.152,95.543-48.551
			c0,0-3.121-4.782-6.641-0.667c-9.74,11.375-36.346,35.67-72.527,36.854C228.71,496.542,186.813,463.137,186.813,463.137z"/>
		<path fill="#951B81" d="M186.813,463.137c21.229,24.726,48.166,41.604,91.164,43.632c66.307,3.137,85.621-39.152,95.543-48.551
			c0,0-3.121-4.782-6.641-0.667c-9.74,11.375-36.346,35.67-72.527,36.854C228.71,496.542,186.813,463.137,186.813,463.137z"/>
		<path fill="#EC6608" d="M135.435,47.714c-6.902-2.431-27.314-1.422-45.809,9.613c-19.363,11.554-31.352,29.546-35.197,44.164
			c-1.582,5.985-1.803,11.193-0.129,13.419c0.008-0.146,0.027-0.287,0.057-0.424c1.133-8.297,11.389-32.53,30.941-48.087
			c14.652-11.658,37.617-18.735,51.014-16.31c0.203,0.02,0.395,0.056,0.586,0.108c0.047,0.008,0.098,0.015,0.148,0.025v0.02
			c1.525,0.486,2.641,1.904,2.641,3.594C139.687,54.517,140.747,49.585,135.435,47.714z"/>
		<path fill="none" d="M137.046,57.449v-0.02c1.525-0.488,2.641-1.901,2.641-3.592c0-1.689-1.115-3.107-2.641-3.594v-0.02
			c-0.051-0.011-0.102-0.018-0.148-0.025c-0.191-0.053-0.383-0.089-0.586-0.108c-13.396-2.426-36.361,4.651-51.014,16.31
			c-19.553,15.557-29.809,39.79-30.941,48.087c-0.039,0.157-0.062,0.313-0.062,0.479c0,1.123,0.91,2.033,2.033,2.033
			c0.643,0,1.199-0.296,1.574-0.755c0-0.003,0.006-0.009,0.01-0.014c0.035-0.042,0.076-0.084,0.107-0.132
			c2.729-3.341,15.816-20.662,35.393-36.512C106.661,68.864,125.888,60.42,137.046,57.449z"/>
		<path fill="#951B81" d="M196.829,44.007l-1.252-0.033c-18.277,0-63.178-28.192-114.385-1.113
			c-44.432,23.49-40.199,76.062-49.033,90.393c-8.336,13.517-19.422,39.786-22.453,65.271c-2.342,19.698-1.227,46.595,2.486,57.232
			c1.08,2.688,4.213,3.479,6.217,3.471c2.469-0.016,5.184-1.35,5.436-4.875c0,0-7.129-63.265,10.713-100.929
			c10.574-22.321,9.41-42.099,21.01-68.223c7.012-15.772,36.797-43.286,71.01-43.286c18.621,0,27.402,3.141,35.113,5.214
			c13.186,3.546,31.621,4.513,35.939,4.078c52.34-5.287,62.871-4.863,45.539-6.233C222.468,43.337,205.005,43.682,196.829,44.007z"
			/>
		<path fill="#EC6608" d="M135.435,47.714c-6.902-2.431-27.314-1.422-45.809,9.613c-19.363,11.554-31.352,29.546-35.197,44.164
			c-1.582,5.985-1.803,11.193-0.129,13.419c0.008-0.146,0.027-0.287,0.057-0.424c1.133-8.297,11.389-32.53,30.941-48.087
			c14.652-11.658,37.617-18.735,51.014-16.31c0.203,0.02,0.395,0.056,0.586,0.108c0.047,0.008,0.098,0.015,0.148,0.025v0.02
			c1.525,0.486,2.641,1.904,2.641,3.594C139.687,54.517,140.747,49.585,135.435,47.714z"/>
		<path fill="none" d="M137.046,50.244v-0.02c-0.051-0.011-0.102-0.018-0.148-0.025c-0.191-0.053-0.383-0.089-0.586-0.108
			c-13.396-2.426-36.361,4.651-51.014,16.31c-19.553,15.557-29.809,39.79-30.941,48.087c-0.039,0.157-0.062,0.313-0.062,0.479
			c0,1.123,0.91,2.033,2.033,2.033c0.643,0,1.199-0.296,1.574-0.755c0-0.003,0.006-0.009,0.01-0.014
			c0.035-0.042,0.076-0.084,0.107-0.132c2.729-3.341,15.816-20.662,35.393-36.512c13.25-10.724,32.477-19.167,43.635-22.139v-0.02
			c1.525-0.488,2.641-1.901,2.641-3.592C139.687,52.148,138.571,50.73,137.046,50.244z"/>
		<path fill="#EC6608" d="M31.435,253.668c0.006-0.142-0.018-1.303-0.078-1.731c-0.777-19.849,2.15-51.946,20.855-89.188
			c7.994-15.923,23.34-32.555,38.553-44.983c13.277-10.852,26.455-18.499,34.545-19.679c0,0-6.559-0.596-13.719,1.665
			c-10.838,3.422-24.623,12.978-45.332,31.599c-20.705,18.621-35.936,65.326-37.33,79.688c-0.783,8.101-1.887,20.617-0.955,29.996
			C28.692,248.29,31.435,253.668,31.435,253.668z"/>
	</g>
</g>
</svg>
